<?xml version="1.0" encoding="utf-8"?>
<!-- Generator: Adobe Illustrator 27.0.1, SVG Export Plug-In . SVG Version: 6.00 Build 0)  -->
<svg version="1.1" id="Layer_1" xmlns="http://www.w3.org/2000/svg" xmlns:xlink="http://www.w3.org/1999/xlink" x="0px" y="0px"
	 viewBox="0 0 283.5 283.5" style="enable-background:new 0 0 283.5 283.5;" xml:space="preserve">
<style type="text/css">
	.st0{fill:#FFFFFF;}
	.st1{fill:#FE500C;}
	.st2{fill:#FFFFFF;stroke:#FFFFFF;stroke-width:1.5181;stroke-miterlimit:10;}
</style>
<g>
	<path class="st0" d="M157.8,197.2c5.3,28.8,30.5,50.5,61,50.5c34.6,0,62.8-27.6,62.2-62.2c-0.6-11.7-4.7-22.9-10.6-32.9l-29.3-62.2
		c-5.3-10-12.3-17.6-19.9-22.9c0.6-3.5,0.6-6.5,0-10.6c-3.5-15.8-21.7-26.4-41.7-22.9c-19.9,4.1-33.4,20.5-29.9,36.4
		c1.2,4.7,2.9,8.2,5.3,11.7c-3.5,7-5.3,15.8-5.3,25.2"/>
	<path class="st0" d="M130,111.3c0-9.3-2.2-17.6-6-24.7c2.2-3.3,4.4-6,4.9-9.9c3.3-14.8-9.3-30.8-28-34.1
		c-18.7-3.8-35.7,5.5-39,21.4c-0.5,3.3-0.5,7.1,0.5,11c-7.1,4.9-13.2,12.1-17.6,20.9l-29.1,61c-1.1,2.2-2.2,4.9-3.3,6.6l-0.5,1.1
		l0,0c-2.7,6-3.8,13.7-3.8,20.9c0,32.4,25.8,58.3,58.3,58.3c28.6,0,51.7-20.9,57.2-47.3"/>
	<g>
		<path class="st1" d="M218,251.2c-33.4,0-60.7-27.3-60.7-60.7s27.3-60.7,60.7-60.7s60.7,27.3,60.7,60.7S252,251.2,218,251.2z
			 M218,140.7c-27.9,0-49.8,22.5-49.8,49.8c0,27.9,22.5,49.8,49.8,49.8s49.8-22.5,49.8-49.8C268.4,163.1,245.9,140.7,218,140.7z"/>
		<path class="st1" d="M218,255.4c-35.8,0-65-29.1-65-65s29.1-65,65-65s65,29.1,65,65C283.6,226.3,253.8,255.4,218,255.4z M218,134
			c-31.6,0-57.1,25.5-57.1,57.1s25.5,57.1,57.1,57.1s57.1-25.5,57.1-57.1C275.1,159.5,249.6,134,218,134z M218,244.5
			c-30.4,0-54.7-24.3-54.7-54.7s24.3-54.7,54.7-54.7s54.7,24.3,54.7,54.7S248.4,244.5,218,244.5z M218,144.3
			c-25.5,0-45.5,20-45.5,45.5s20,45.5,45.5,45.5s45.5-20,45.5-45.5C264.2,165.6,243.5,144.3,218,144.3z"/>
	</g>
	<path d="M221.1,144.3c26.1,0,46.8,21.3,46.8,46.8c0,26.1-21.3,46.8-46.8,46.8"/>
	<g>
		<path class="st1" d="M124.5,183.3c43.2,0.3,43.2,0.3,43.2,0.3"/>
		
			<rect x="126.6" y="162.2" transform="matrix(1.046083e-02 -0.9999 0.9999 1.046083e-02 -39.2145 327.9277)" class="st1" width="38.9" height="43.1"/>
	</g>
	<path class="st1" d="M151.8,188l-4.9-75.3c-0.6-17.6,4.9-32.2,14.6-42.5c7.9-7.9,18.8-12.8,31.6-12.1c20.6,0,38.3,11.5,49.2,32.2
		l37,77.7l-14.6,6.1l-37-77.7c-7.9-14.6-19.4-23.1-34.6-23.1h-0.6c-7.9,0-14.6,3-19.4,7.9c-6.1,6.7-9.7,17.6-9.7,30.4l4.9,74.7
		L151.8,188z"/>
	<rect x="126.9" y="109.1" class="st1" width="29.1" height="23.7"/>
	<path class="st1" d="M156.1,86c-5.5-4.3-7.9-9.7-9.7-15.8c-3.6-17,10.3-34,31.6-38.3c20.6-4.3,40.1,6.1,43.7,23.7
		c1.2,5.5,0.6,9.7-1.2,14.6l-15.2-6.1c1.2-1.8,1.2-4.3,0.6-6.1c-1.2-7.9-12.1-12.8-23.7-10.3c-11.5,2.4-19.4,10.9-18.8,18.8
		c0.6,2.4,1.8,4.9,4.3,6.7L156.1,86z"/>
	<polygon class="st1" points="210.1,70.2 232.6,129.7 252.6,135.2 255.1,126.1 240.5,95.1 232.6,78.1 	"/>
	<polygon class="st1" points="180,74 189.5,143.1 164.6,165.6 160.9,143.7 158.5,92.1 166.4,76.9 	"/>
	<path class="st1" d="M181,66c0,0-13.4-14,0.6-25.5l-25.5,17.6l0.6,12.1"/>
	<path class="st2" d="M221.1,240.2c-26.7,0-48-21.3-48-48s21.3-48,48-48s48,21.3,48,48C269.6,217.8,247.8,240.2,221.1,240.2z
		 M221.1,148.6c-23.7,0-43.7,18.8-43.7,43.7c0,23.7,18.8,43.7,43.7,43.7c23.7,0,43.7-18.8,43.7-43.7S245.3,148.6,221.1,148.6z"/>
	<g>
		<path class="st1" d="M4.3,190.5c0-33.4,27.3-60.7,60.7-60.7s60.7,27.3,60.7,60.7S98.4,251.2,65,251.2
			C31,251.2,4.3,223.9,4.3,190.5z M15.2,190.5c0,27.3,22.5,49.8,49.8,49.8s49.8-21.9,49.8-49.8c0-27.3-21.9-49.8-49.8-49.8
			S14.6,163.1,15.2,190.5z"/>
		<path class="st1" d="M0,190.5c0-35.8,29.1-65,65-65s65,29.1,65,65s-29.1,65-65,65C29.2,255.4-0.6,226.3,0,190.5z M7.9,191.1
			c0,31.6,25.5,57.1,57.1,57.1s57.1-25.5,57.1-57.1S96.6,134,65,134C33.4,134,7.9,159.5,7.9,191.1z M10.3,189.8
			c0-30.4,24.3-54.7,54.7-54.7s54.7,24.3,54.7,54.7S95.3,244.5,65,244.5S10.3,220.2,10.3,189.8z M19.4,189.8
			c0,25.5,20,45.5,45.5,45.5s45.5-20,45.5-45.5s-20-45.5-45.5-45.5S18.8,165.6,19.4,189.8z"/>
	</g>
	<path d="M61.9,144.3c26.1,0,46.8,21.3,46.8,46.8c0,26.1-21.3,46.8-46.8,46.8"/>
	<path class="st1" d="M114.8,186.2l4.9-74.7c0-12.8-3.6-23.7-9.7-30.4c-4.9-4.9-11.5-7.9-19.4-7.9h-0.6c-15.2,0-26.7,8.5-34.6,23.1
		l-37,77.7L3.7,168l37-77.7c10.9-20.6,28.5-32.2,49.2-32.2c12.8-0.6,23.7,4.3,31.6,12.1c9.7,10.3,15.2,24.9,14.6,42.5l-4.9,75.3
		L114.8,186.2z"/>
	<path class="st1" d="M115.4,73.3c2.4-1.8,3.6-4.3,4.3-6.7c0.6-7.9-7.3-16.4-18.8-18.8c-11.5-2.4-22.5,2.4-23.7,10.3
		c-0.6,1.8-0.6,4.3,0.6,6.1l-15.2,6.1c-1.8-4.9-2.4-9.1-1.2-14.6C65,38,84.4,27.7,105.1,32c21.3,4.3,35.2,21.3,31.6,38.3
		c-1.8,6.1-4.3,11.5-9.7,15.8L115.4,73.3z"/>
	<polygon class="st1" points="50.4,78.1 42.5,95.1 27.9,126.1 30.4,135.2 50.4,129.7 72.9,70.2 	"/>
	<polygon class="st1" points="116.6,76.9 124.5,92.1 122.1,143.7 118.4,165.6 93.5,143.1 103,74 	"/>
	<path class="st1" d="M126.3,70.2l0.6-12.1l-25.5-17.6C115.4,52,102,66,102,66"/>
	<path class="st2" d="M65,240.2c-26.7,0-48-21.3-48-48s21.3-48,48-48s48,21.3,48,48C113.6,217.8,91.7,240.2,65,240.2z M65,148.6
		c-23.7,0-43.7,18.8-43.7,43.7C21.3,216,40.1,236,65,236c23.7,0,43.7-18.8,43.7-43.7S89.3,148.6,65,148.6z"/>
</g>
</svg>
