<svg width="307" height="56" viewBox="0 0 307 56" fill="none" xmlns="http://www.w3.org/2000/svg">
<path d="M26.0174 50.3068C26.7128 50.3068 27.2037 50.2659 27.4901 50.1841C27.7764 50.1023 27.9605 50.0409 28.0423 50V48.7728C28.0423 47.9546 28.0219 47.1365 27.981 46.3183C27.981 45.5001 27.981 44.682 27.981 43.8638C27.981 42.7184 27.981 41.5934 27.981 40.4889C28.0219 39.3844 28.0423 38.239 28.0423 37.0527C28.0423 35.2936 28.0423 33.5346 28.0423 31.7756C28.0423 30.0165 28.0219 28.2779 27.981 26.5598V6.80131C26.7946 6.55586 25.4447 6.43314 23.9311 6.43314C22.3766 6.43314 20.9039 6.55586 19.513 6.80131C19.4721 7.82401 19.4312 8.78534 19.3903 9.68532C19.3903 10.5444 19.3903 11.4034 19.3903 12.2625C19.3903 13.7352 19.4108 15.1874 19.4517 16.6192C19.5335 18.0101 19.5744 19.5237 19.5744 21.16C19.5744 21.8554 19.5335 22.5713 19.4517 23.3076C19.3699 24.044 19.2676 24.453 19.1449 24.5349C19.104 24.5349 18.9608 24.3099 18.7153 23.8599C18.4699 23.369 18.1631 22.7963 17.7949 22.1418C17.4677 21.4463 17.0995 20.6895 16.6904 19.8714C16.2813 19.0123 15.8927 18.2146 15.5245 17.4783C15.1564 16.701 14.8291 16.026 14.5427 15.4533C14.2564 14.8806 14.0723 14.492 13.9905 14.2874C13.6223 13.4284 13.2951 12.7329 13.0087 12.2011C12.7632 11.6284 12.5178 11.1171 12.2724 10.6671C12.0678 10.2171 11.8428 9.74668 11.5974 9.25578C11.3519 8.76489 11.086 8.15127 10.7997 7.41493C10.7997 7.33311 10.5747 7.2513 10.1247 7.16948C9.71561 7.08767 9.22472 7.0263 8.65201 6.9854C8.0793 6.90358 7.50659 6.86267 6.93388 6.86267C6.36117 6.82176 5.95209 6.80131 5.70664 6.80131C5.21575 6.80131 4.72486 6.82176 4.23396 6.86267C3.78398 6.90358 3.35444 6.96494 2.94537 7.04676C2.74083 9.66486 2.59765 12.3648 2.51583 15.1465C2.43402 17.8873 2.39311 20.6691 2.39311 23.4917C2.39311 27.3371 2.41356 31.0188 2.45447 34.5368C2.53629 38.0549 2.57719 41.7571 2.57719 45.6433V49.9386C3.51808 49.9386 4.47941 50 5.4612 50.1227C6.48389 50.2454 7.48614 50.3068 8.46793 50.3068C8.91791 50.3068 9.3679 50.2864 9.81788 50.2454C10.2679 50.2045 10.7179 50.1227 11.1678 50C11.1269 49.3046 11.1065 48.5273 11.1065 47.6683C11.1065 46.7683 11.1065 45.8479 11.1065 44.907C11.1065 43.1888 11.1065 41.4094 11.1065 39.5685C11.1474 37.7276 11.1883 36.0504 11.2292 34.5368C11.2701 33.0232 11.311 31.7756 11.3519 30.7938C11.4337 29.812 11.4951 29.3211 11.536 29.3211C11.6178 29.3211 11.7201 29.5256 11.8428 29.9347C12.0065 30.3029 12.1701 30.7119 12.3337 31.1619L12.9473 33.0028C13.8882 35.6209 15.0132 38.3617 16.3222 41.2253C17.6722 44.0479 19.0222 46.9728 20.3721 50C21.1903 50 22.1311 50.0409 23.1948 50.1227C24.2584 50.2454 25.1992 50.3068 26.0174 50.3068ZM57.3761 13.6738C56.8852 12.2421 56.0466 10.9944 54.8603 9.93076C53.674 9.03079 52.324 8.35581 50.8104 7.90582C49.3377 7.41493 47.8037 7.12857 46.2083 7.04676C44.6538 6.96494 43.0788 7.08767 41.4834 7.41493C39.9289 7.70128 38.4767 8.17172 37.1267 8.82625C36.5949 9.15351 36.1245 9.52168 35.7154 9.93076C34.4473 11.3625 33.5882 13.0193 33.1382 14.9011C32.7292 16.7419 32.5042 18.5828 32.4633 20.4236C32.2587 23.6553 32.2178 26.8871 32.3405 30.1188C32.5042 33.3096 32.6473 36.5004 32.7701 39.6912C32.811 40.8775 32.9132 42.0639 33.0769 43.2502C33.2814 44.3956 33.67 45.4797 34.2427 46.5024C34.6109 47.3205 35.0814 47.9955 35.6541 48.5273C36.2268 49.0182 36.8608 49.4273 37.5563 49.7546C38.2926 50.0818 39.0494 50.3068 39.8267 50.4295C40.6448 50.5932 41.4834 50.7159 42.3425 50.7977C43.5288 50.8795 44.6947 50.8795 45.8401 50.7977C47.0264 50.7159 48.1923 50.5113 49.3377 50.1841C50.6059 49.8568 51.7922 49.4068 52.8967 48.8341C54.0421 48.2205 54.9626 47.4228 55.658 46.441C56.3943 45.2547 56.9466 43.9456 57.3148 42.5139C57.6829 41.0412 57.9079 39.589 57.9898 38.1572L58.1738 36.1322C58.3375 34.005 58.3988 31.9187 58.3579 29.8733C58.317 27.8279 58.3579 25.7212 58.4806 23.5531C58.5216 22.5304 58.5216 21.5281 58.4806 20.5463C58.4806 19.5237 58.4397 18.501 58.3579 17.4783C58.2761 16.8237 58.1534 16.1897 57.9898 15.576C57.867 14.9215 57.6625 14.2874 57.3761 13.6738ZM50.8104 31.5915C50.8104 31.6733 50.79 32.021 50.7491 32.6346C50.7491 33.2482 50.7286 33.9641 50.6877 34.7823C50.6059 35.6413 50.565 36.3368 50.565 36.8686C50.6059 37.3595 50.6059 37.789 50.565 38.1572C50.5241 38.5253 50.4218 38.8731 50.2582 39.2003C50.0945 39.4867 49.8286 39.8753 49.4605 40.3662C48.8468 41.0616 48.0901 41.573 47.1901 41.9002C46.2901 42.1866 45.3901 42.3093 44.4902 42.2684C43.5902 42.1866 42.7516 41.9207 41.9743 41.4707C41.1971 41.0207 40.6039 40.3867 40.1948 39.5685C39.7858 38.2185 39.5403 36.8072 39.4585 35.3345C39.3767 33.8209 39.2335 32.3483 39.029 30.9165C38.9471 29.1984 38.9267 27.4802 38.9676 25.7621C39.0494 24.044 39.254 22.4077 39.5812 20.8532C40.0721 19.135 41.0334 17.7237 42.4652 16.6192C43.1197 16.1283 43.8765 15.7806 44.7356 15.576C45.5947 15.3715 46.4333 15.4329 47.2514 15.7601C48.1923 16.2101 48.9287 16.9055 49.4605 17.8464C50.0332 18.7873 50.3604 19.8305 50.4423 20.9759C50.4832 21.6713 50.5241 22.4281 50.565 23.2463C50.6468 24.0235 50.6877 24.4326 50.6877 24.4735L50.8104 28.6461V31.5915ZM89.0019 8.94897C88.511 8.66262 87.8769 8.47853 87.0997 8.39672C86.3224 8.3149 85.5043 8.29445 84.6452 8.33536C83.7861 8.37626 82.9271 8.45808 82.068 8.5808C81.2499 8.66262 80.5749 8.72398 80.0431 8.76489C79.9204 13.5102 79.8385 18.4191 79.7976 23.4917C79.7976 28.5643 79.6954 33.555 79.4908 38.464C79.2863 39.4049 78.8363 40.1412 78.1409 40.673C77.4454 41.2048 76.6886 41.4912 75.8705 41.5321C75.0523 41.573 74.2546 41.3684 73.4774 40.9185C72.741 40.4685 72.2297 39.7526 71.9433 38.7708C71.1252 28.5847 70.9411 18.5419 71.3911 8.64217V8.5808C70.7774 8.41717 70.1025 8.3149 69.3661 8.274C68.6298 8.19218 67.873 8.15127 67.0957 8.15127C66.3185 8.15127 65.5412 8.17172 64.764 8.21263C64.0277 8.25354 63.3527 8.274 62.7391 8.274H62.6777L62.7391 8.33536C62.8209 13.7352 62.8004 19.1759 62.6777 24.6576C62.555 30.1392 62.4936 35.58 62.4936 40.9798C62.5754 42.8616 63.1072 44.4774 64.089 45.8274C65.1117 47.1365 66.3594 48.2001 67.8321 49.0182C69.3457 49.7955 71.0229 50.3273 72.8637 50.6136C74.7046 50.9409 76.4841 51.0227 78.2022 50.8591C81.1476 50.5727 83.4793 49.4887 85.1975 47.6069C86.9156 45.7251 87.9383 43.4343 88.2656 40.7344C88.8383 35.4573 89.1655 30.1597 89.2473 24.8417C89.3292 19.4827 89.2473 14.1852 89.0019 8.94897ZM117.221 50.3068C117.917 50.3068 118.407 50.2659 118.694 50.1841C118.98 50.1023 119.164 50.0409 119.246 50V48.7728C119.246 47.9546 119.226 47.1365 119.185 46.3183C119.185 45.5001 119.185 44.682 119.185 43.8638C119.185 42.7184 119.185 41.5934 119.185 40.4889C119.226 39.3844 119.246 38.239 119.246 37.0527C119.246 35.2936 119.246 33.5346 119.246 31.7756C119.246 30.0165 119.226 28.2779 119.185 26.5598V6.80131C117.998 6.55586 116.648 6.43314 115.135 6.43314C113.58 6.43314 112.108 6.55586 110.717 6.80131C110.676 7.82401 110.635 8.78534 110.594 9.68532C110.594 10.5444 110.594 11.4034 110.594 12.2625C110.594 13.7352 110.615 15.1874 110.655 16.6192C110.737 18.0101 110.778 19.5237 110.778 21.16C110.778 21.8554 110.737 22.5713 110.655 23.3076C110.574 24.044 110.471 24.453 110.349 24.5349C110.308 24.5349 110.165 24.3099 109.919 23.8599C109.674 23.369 109.367 22.7963 108.999 22.1418C108.671 21.4463 108.303 20.6895 107.894 19.8714C107.485 19.0123 107.096 18.2146 106.728 17.4783C106.36 16.701 106.033 16.026 105.746 15.4533C105.46 14.8806 105.276 14.492 105.194 14.2874C104.826 13.4284 104.499 12.7329 104.212 12.2011C103.967 11.6284 103.722 11.1171 103.476 10.6671C103.272 10.2171 103.047 9.74668 102.801 9.25578C102.556 8.76489 102.29 8.15127 102.003 7.41493C102.003 7.33311 101.778 7.2513 101.328 7.16948C100.919 7.08767 100.428 7.0263 99.8557 6.9854C99.283 6.90358 98.7103 6.86267 98.1376 6.86267C97.5649 6.82176 97.1558 6.80131 96.9104 6.80131C96.4195 6.80131 95.9286 6.82176 95.4377 6.86267C94.9877 6.90358 94.5582 6.96494 94.1491 7.04676C93.9446 9.66486 93.8014 12.3648 93.7196 15.1465C93.6377 17.8873 93.5968 20.6691 93.5968 23.4917C93.5968 27.3371 93.6173 31.0188 93.6582 34.5368C93.74 38.0549 93.7809 41.7571 93.7809 45.6433V49.9386C94.7218 49.9386 95.6831 50 96.6649 50.1227C97.6876 50.2454 98.6899 50.3068 99.6717 50.3068C100.122 50.3068 100.572 50.2864 101.022 50.2454C101.472 50.2045 101.922 50.1227 102.372 50C102.331 49.3046 102.31 48.5273 102.31 47.6683C102.31 46.7683 102.31 45.8479 102.31 44.907C102.31 43.1888 102.31 41.4094 102.31 39.5685C102.351 37.7276 102.392 36.0504 102.433 34.5368C102.474 33.0232 102.515 31.7756 102.556 30.7938C102.637 29.812 102.699 29.3211 102.74 29.3211C102.822 29.3211 102.924 29.5256 103.047 29.9347C103.21 30.3029 103.374 30.7119 103.537 31.1619L104.151 33.0028C105.092 35.6209 106.217 38.3617 107.526 41.2253C108.876 44.0479 110.226 46.9728 111.576 50C112.394 50 113.335 50.0409 114.398 50.1227C115.462 50.2454 116.403 50.3068 117.221 50.3068Z" fill="#3E4B5F"/>
<path d="M217.411 20.9145C217.983 17.8464 217.738 15.3101 216.674 13.3057C215.611 11.3012 214.097 9.78758 212.133 8.76489C211.152 8.3149 210.068 7.94673 208.881 7.66037C207.736 7.37402 206.549 7.21039 205.322 7.16948C204.136 7.08767 202.95 7.12857 201.763 7.29221C200.577 7.41493 199.493 7.68083 198.511 8.08991C196.547 8.90807 194.87 10.1558 193.479 11.833C192.129 13.5102 191.209 15.3715 190.718 17.4169C190.227 19.4623 190.248 21.569 190.779 23.7372C191.352 25.9053 192.579 27.8893 194.461 29.6893C195.034 30.1801 195.668 30.6097 196.363 30.9779C197.059 31.346 197.816 31.6119 198.634 31.7756C199.493 31.9392 200.413 32.1233 201.395 32.3278C202.377 32.4914 203.277 32.7573 204.095 33.1255C204.954 33.4937 205.69 33.9846 206.304 34.5982C206.918 35.1709 207.286 35.9482 207.409 36.9299C207.654 38.3617 207.368 39.4253 206.549 40.1208C205.772 40.8162 204.831 41.1844 203.727 41.2253C202.663 41.2253 201.641 40.898 200.659 40.2435C199.718 39.589 199.207 38.6072 199.125 37.2981C197.734 37.339 196.179 37.3186 194.461 37.2368C192.743 37.114 191.168 37.1549 189.736 37.3595V37.5436V37.7276C189.614 39.6912 189.961 41.4503 190.779 43.0048C191.598 44.5183 192.702 45.8069 194.093 46.8705C195.484 47.9342 197.059 48.7728 198.818 49.3864C200.618 49.9591 202.418 50.2659 204.218 50.3068C205.486 50.3477 206.713 50.2454 207.899 50C209.127 49.7136 210.252 49.2841 211.274 48.7114C212.338 48.1387 213.279 47.4024 214.097 46.5024C214.915 45.6024 215.57 44.5183 216.061 43.2502C216.551 42.1866 216.899 41.0821 217.104 39.9367C217.349 38.7503 217.431 37.5845 217.349 36.439C217.308 35.2936 217.104 34.1891 216.736 33.1255C216.367 32.021 215.815 30.9983 215.079 30.0574C213.892 28.2984 212.358 26.8462 210.477 25.7007C208.636 24.5553 206.631 23.8599 204.463 23.6144C203.604 23.4917 202.806 23.2667 202.07 22.9395C201.334 22.6122 200.802 21.9577 200.475 20.9759C200.434 20.6895 200.393 20.4236 200.352 20.1782C200.352 19.8918 200.393 19.6055 200.475 19.3191C200.638 18.1737 201.17 17.3964 202.07 16.9874C203.011 16.5783 203.972 16.476 204.954 16.6806C205.936 16.8851 206.774 17.3555 207.47 18.0919C208.165 18.8282 208.39 19.7486 208.145 20.8532C209.577 21.2622 211.111 21.4463 212.747 21.4054C214.383 21.3236 215.917 21.16 217.349 20.9145H217.411ZM247.193 41.6548C244.411 41.7366 241.711 41.7162 239.093 41.5934C236.475 41.4298 233.816 41.348 231.116 41.348L231.054 41.2866C230.973 40.3048 230.891 39.0776 230.809 37.6049C230.768 36.1322 230.85 34.8027 231.054 33.6164C231.259 33.4528 231.648 33.3505 232.22 33.3096C232.793 33.2687 233.427 33.2482 234.122 33.2482C234.859 33.2482 235.616 33.2482 236.393 33.2482C237.17 33.2073 237.866 33.1051 238.479 32.9414C238.438 31.4278 238.459 29.9756 238.541 28.5847C238.622 27.1939 238.561 25.803 238.356 24.4121V24.3508C237.088 24.3099 235.82 24.2894 234.552 24.2894C233.284 24.2894 232.036 24.2485 230.809 24.1667L230.748 24.1053C230.461 23.0008 230.379 21.8349 230.502 20.6077C230.666 19.3396 230.727 18.1123 230.686 16.926L230.748 16.8646H230.932C232.282 16.7419 233.632 16.6806 234.982 16.6806C236.331 16.6806 237.681 16.701 239.031 16.7419C240.381 16.7419 241.711 16.7215 243.02 16.6806C244.37 16.5987 245.699 16.4147 247.008 16.1283V16.0669C247.008 14.6352 247.049 13.1829 247.131 11.7103C247.254 10.2376 247.213 8.78534 247.008 7.35357C247.008 7.31266 246.599 7.27175 245.781 7.23084C244.963 7.18994 243.879 7.16948 242.529 7.16948C241.179 7.16948 239.625 7.18994 237.866 7.23084C236.107 7.27175 234.286 7.31266 232.404 7.35357C230.523 7.39448 228.641 7.45584 226.759 7.53765C224.918 7.57856 223.2 7.63992 221.605 7.72174C221.4 11.2398 221.277 14.7374 221.237 18.2146C221.196 21.6918 221.196 25.1689 221.237 28.6461C221.277 32.1233 221.339 35.6209 221.421 39.139C221.502 42.6161 221.543 46.1342 221.543 49.6932C225.511 50.0205 229.643 50.1227 233.938 50C238.275 49.8364 242.529 49.775 246.702 49.8159C247.029 48.5887 247.213 47.2796 247.254 45.8888C247.295 44.457 247.274 43.0866 247.193 41.7775V41.6548ZM276.735 41.6548C273.953 41.7366 271.253 41.7162 268.635 41.5934C266.017 41.4298 263.358 41.348 260.658 41.348L260.597 41.2866C260.515 40.3048 260.433 39.0776 260.351 37.6049C260.31 36.1322 260.392 34.8027 260.597 33.6164C260.801 33.4528 261.19 33.3505 261.763 33.3096C262.335 33.2687 262.969 33.2482 263.665 33.2482C264.401 33.2482 265.158 33.2482 265.935 33.2482C266.712 33.2073 267.408 33.1051 268.022 32.9414C267.981 31.4278 268.001 29.9756 268.083 28.5847C268.165 27.1939 268.103 25.803 267.899 24.4121V24.3508C266.631 24.3099 265.362 24.2894 264.094 24.2894C262.826 24.2894 261.579 24.2485 260.351 24.1667L260.29 24.1053C260.004 23.0008 259.922 21.8349 260.044 20.6077C260.208 19.3396 260.269 18.1123 260.229 16.926L260.29 16.8646H260.474C261.824 16.7419 263.174 16.6806 264.524 16.6806C265.874 16.6806 267.224 16.701 268.574 16.7419C269.924 16.7419 271.253 16.7215 272.562 16.6806C273.912 16.5987 275.242 16.4147 276.551 16.1283V16.0669C276.551 14.6352 276.592 13.1829 276.674 11.7103C276.796 10.2376 276.755 8.78534 276.551 7.35357C276.551 7.31266 276.142 7.27175 275.324 7.23084C274.505 7.18994 273.421 7.16948 272.071 7.16948C270.721 7.16948 269.167 7.18994 267.408 7.23084C265.649 7.27175 263.828 7.31266 261.947 7.35357C260.065 7.39448 258.183 7.45584 256.301 7.53765C254.461 7.57856 252.742 7.63992 251.147 7.72174C250.942 11.2398 250.82 14.7374 250.779 18.2146C250.738 21.6918 250.738 25.1689 250.779 28.6461C250.82 32.1233 250.881 35.6209 250.963 39.139C251.045 42.6161 251.086 46.1342 251.086 49.6932C255.054 50.0205 259.185 50.1227 263.481 50C267.817 49.8364 272.071 49.775 276.244 49.8159C276.571 48.5887 276.755 47.2796 276.796 45.8888C276.837 44.457 276.817 43.0866 276.735 41.7775V41.6548ZM295.784 27.9711C296.521 26.253 297.38 24.5349 298.362 22.8167C299.343 21.0986 300.325 19.3805 301.307 17.6623C302.33 15.9442 303.27 14.2261 304.13 12.508C305.03 10.7898 305.725 9.0717 306.216 7.35357C304.907 7.14903 303.516 7.08767 302.043 7.16948C300.571 7.2513 299.18 7.2513 297.871 7.16948C297.012 8.39672 296.234 9.62395 295.539 10.8512C294.884 12.0784 294.23 13.3057 293.575 14.5329C292.962 15.7601 292.307 16.9669 291.612 18.1532C290.916 19.3396 290.139 20.485 289.28 21.5895C289.198 21.6713 289.116 21.7736 289.035 21.8963C288.994 21.9781 288.973 21.9986 288.973 21.9577C288.891 19.6259 288.871 17.1715 288.912 14.5943C288.953 12.0171 288.932 9.56259 288.85 7.23084C287.541 7.23084 286.171 7.21039 284.739 7.16948C283.348 7.08767 281.978 7.06721 280.628 7.10812C280.669 14.267 280.567 21.4054 280.321 28.5234C280.117 35.6004 280.178 42.657 280.505 49.6932C281.037 49.8159 281.692 49.9182 282.469 50C283.287 50.0818 284.126 50.1227 284.985 50.1227C285.844 50.1227 286.662 50.0818 287.439 50C288.216 49.9591 288.891 49.8568 289.464 49.6932C289.464 48.5478 289.444 47.3001 289.403 45.9501C289.403 44.6002 289.382 43.2298 289.341 41.8389C289.3 40.448 289.26 39.0776 289.219 37.7276C289.219 36.3368 289.239 35.0482 289.28 33.8619C289.935 35.0073 290.589 36.2959 291.244 37.7276C291.898 39.1594 292.553 40.6116 293.207 42.0843C293.903 43.557 294.618 44.9888 295.355 46.3797C296.091 47.7296 296.889 48.8955 297.748 49.8773C299.057 49.9182 300.468 49.9795 301.982 50.0614C303.536 50.1432 304.968 50.0409 306.277 49.7546L295.784 27.9711Z" fill="#3E4B5F"/>
<g clip-path="url(#clip0_220_3442)">
<path d="M146.755 22.2695H140.17V25.562H146.755V22.2695Z" fill="white"/>
<path d="M153.341 22.2695H146.756V25.562H153.341V22.2695Z" fill="black"/>
<path d="M169.802 22.2695H163.217V25.562H169.802V22.2695Z" fill="white"/>
<path d="M176.388 22.2695H169.803V25.562H176.388V22.2695Z" fill="black"/>
<path d="M146.755 25.5566H140.17V28.8491H146.755V25.5566Z" fill="white"/>
<path d="M153.341 25.5566H146.756V28.8491H153.341V25.5566Z" fill="black"/>
<path d="M169.802 25.5566H163.217V28.8491H169.802V25.5566Z" fill="white"/>
<path d="M176.388 25.5566H169.803V28.8491H176.388V25.5566Z" fill="black"/>
<path d="M146.755 28.8594H140.17V32.1518H146.755V28.8594Z" fill="white"/>
<path d="M153.341 28.8594H146.756V32.1518H153.341V28.8594Z" fill="black"/>
<path d="M169.802 28.8594H163.217V32.1518H169.802V28.8594Z" fill="white"/>
<path d="M176.388 28.8594H169.803V32.1518H176.388V28.8594Z" fill="black"/>
<path d="M146.755 32.1465H140.17V35.4389H146.755V32.1465Z" fill="white"/>
<path d="M153.341 32.1465H146.756V35.4389H153.341V32.1465Z" fill="black"/>
<path d="M169.802 32.1465H163.217V35.4389H169.802V32.1465Z" fill="white"/>
<path d="M176.388 32.1465H169.803V35.4389H176.388V32.1465Z" fill="black"/>
<path d="M156.632 18.9707H136.877V22.2632H156.632V18.9707Z" fill="#EB5D2D"/>
<path d="M179.679 18.9707H159.924V22.2632H179.679V18.9707Z" fill="#EB5D2D"/>
<path d="M140.169 22.2578H136.877V25.5503H140.169V22.2578Z" fill="#EB5D2D"/>
<path d="M156.633 22.2578H153.34V25.5503H156.633V22.2578Z" fill="#EB5D2D"/>
<path d="M163.217 22.2578H159.924V25.5503H163.217V22.2578Z" fill="#EB5D2D"/>
<path d="M179.679 22.2578H176.387V25.5503H179.679V22.2578Z" fill="#EB5D2D"/>
<path d="M179.679 25.5586H176.387V28.8511H179.679V25.5586Z" fill="#EB5D2D"/>
<path d="M140.169 28.8477H136.877V32.1401H140.169V28.8477Z" fill="#EB5D2D"/>
<path d="M156.633 28.8477H153.34V32.1401H156.633V28.8477Z" fill="#EB5D2D"/>
<path d="M163.217 28.8477H159.924V32.1401H163.217V28.8477Z" fill="#EB5D2D"/>
<path d="M179.679 28.8477H176.387V32.1401H179.679V28.8477Z" fill="#EB5D2D"/>
<path d="M130.292 28.8477H127V32.1401H130.292V28.8477Z" fill="#EB5D2D"/>
<path d="M130.292 32.1348H127V35.4272H130.292V32.1348Z" fill="#EB5D2D"/>
<path d="M140.169 32.1367H136.877V35.4292H140.169V32.1367Z" fill="#EB5D2D"/>
<path d="M156.633 32.1367H153.34V35.4292H156.633V32.1367Z" fill="#EB5D2D"/>
<path d="M163.217 32.1367H159.924V35.4292H163.217V32.1367Z" fill="#EB5D2D"/>
<path d="M179.679 32.1367H176.387V35.4292H179.679V32.1367Z" fill="#EB5D2D"/>
<path d="M156.632 35.4375H136.877V38.73H156.632V35.4375Z" fill="#EB5D2D"/>
<path d="M179.679 35.4375H159.924V38.73H179.679V35.4375Z" fill="#EB5D2D"/>
<path d="M140.169 25.5508H127V28.8432H140.169V25.5508Z" fill="#EB5D2D"/>
<path d="M163.218 25.5508H153.34V28.8432H163.218V25.5508Z" fill="#EB5D2D"/>
</g>
<defs>
<clipPath id="clip0_220_3442">
<rect width="52.6794" height="19.7548" fill="white" transform="translate(127 18.9727)"/>
</clipPath>
</defs>
</svg>
