<?xml version="1.0" encoding="utf-8"?>
<!-- Generator: Adobe Illustrator 27.0.1, SVG Export Plug-In . SVG Version: 6.00 Build 0)  -->
<svg version="1.1" id="Layer_1" xmlns="http://www.w3.org/2000/svg" xmlns:xlink="http://www.w3.org/1999/xlink" x="0px" y="0px"
	 viewBox="0 0 283.5 38.2" style="enable-background:new 0 0 283.5 38.2;" xml:space="preserve">
<style type="text/css">
	.st0{enable-background:new    ;}
	.st1{fill:#414B5D;}
	.st2{fill:#FFFFFF;}
	.st3{fill:#FE500C;}
	.st4{fill:#FFFFFF;stroke:#FFFFFF;stroke-width:0.2534;stroke-miterlimit:10;}
</style>
<g class="st0">
	<path class="st1" d="M19.9,37c-0.7,0-1.5,0-2.4-0.1s-1.7-0.1-2.4-0.1c-1.1-2.5-2.3-5-3.4-7.4s-2.1-4.7-2.9-6.9L8.3,21
		c-0.1-0.4-0.3-0.7-0.4-1.1c-0.1-0.3-0.2-0.5-0.3-0.5c0,0-0.1,0.4-0.1,1.2c-0.1,0.8-0.1,1.9-0.1,3.1s-0.1,2.7-0.1,4.2s0,3,0,4.5
		c0,0.8,0,1.6,0,2.3s0,1.4,0.1,2c-0.4,0.1-0.8,0.2-1.1,0.2c-0.4,0-0.8,0.1-1.1,0.1c-0.8,0-1.7-0.1-2.5-0.2c-0.8-0.1-1.7-0.2-2.4-0.2
		V33c0-3.3,0-6.4-0.1-9.3s-0.1-6-0.1-9.3c0-2.4,0-4.7,0.1-7s0.2-4.6,0.4-6.8c0.3-0.1,0.7-0.1,1.1-0.2c0.4,0,0.8-0.1,1.2-0.1
		c0.2,0,0.5,0,1,0s1,0.1,1.4,0.1c0.5,0.1,0.9,0.1,1.3,0.2s0.5,0.1,0.5,0.2c0.2,0.6,0.5,1.1,0.7,1.5C8,2.7,8.2,3.1,8.4,3.5
		S8.8,4.3,9,4.8s0.5,1.1,0.8,1.8c0.1,0.2,0.2,0.5,0.5,1c0.2,0.5,0.5,1,0.8,1.7c0.3,0.6,0.6,1.3,1,2c0.3,0.7,0.7,1.3,1,1.9
		s0.5,1,0.7,1.4s0.3,0.6,0.4,0.6c0.1-0.1,0.2-0.4,0.3-1s0.1-1.2,0.1-1.8c0-1.4,0-2.6-0.1-3.8S14.4,6.2,14.4,5c0-0.7,0-1.4,0-2.2
		c0-0.7,0-1.5,0.1-2.4c1.2-0.2,2.4-0.3,3.7-0.3s2.4,0.1,3.4,0.3V17c0,1.4,0.1,2.9,0.1,4.4s0,2.9,0,4.4c0,1,0,2,0,2.9s0,1.9,0,2.8
		c0,0.7,0,1.4,0,2.1s0,1.4,0,2.1v1c-0.1,0-0.2,0.1-0.5,0.2C20.9,37,20.5,37,19.9,37z"/>
	<path class="st1" d="M46.2,6.3c0.2,0.5,0.4,1,0.5,1.6S46.9,9,47,9.5c0.1,0.9,0.1,1.7,0.1,2.5s0,1.7,0,2.5C47,16.3,47,18.1,47,19.8
		s0,3.5-0.2,5.2l-0.2,1.7c-0.1,1.2-0.3,2.4-0.6,3.6s-0.8,2.3-1.4,3.3c-0.6,0.8-1.3,1.5-2.3,2c-0.9,0.5-1.9,0.9-3,1.2
		c-1,0.3-1.9,0.4-2.9,0.5s-2,0.1-3,0c-0.7-0.1-1.4-0.2-2.1-0.3s-1.3-0.3-1.9-0.6s-1.1-0.6-1.6-1.1c-0.5-0.4-0.9-1-1.2-1.7
		c-0.5-0.9-0.8-1.8-1-2.8s-0.2-2-0.3-3c-0.1-2.7-0.2-5.4-0.3-8c-0.1-2.7-0.1-5.4,0.1-8.1c0-1.5,0.2-3.1,0.6-4.7s1.1-2.9,2.1-4.1
		C28.1,2.6,28.5,2.2,29,2c1.1-0.5,2.4-1,3.7-1.2c1.3-0.2,2.6-0.4,4-0.3c1.3,0.1,2.6,0.3,3.9,0.7c1.3,0.4,2.4,1,3.4,1.7
		C45.1,4.1,45.8,5.1,46.2,6.3z M40.7,18.9l-0.1-3.5c0,0,0-0.4-0.1-1.1s-0.1-1.3-0.1-1.9c-0.1-1-0.3-1.8-0.8-2.6s-1.1-1.4-1.9-1.7
		c-0.7-0.3-1.4-0.3-2.1-0.2c-0.7,0.2-1.4,0.5-1.9,0.9c-1.2,0.9-2,2.1-2.4,3.5c-0.3,1.3-0.4,2.7-0.5,4.1c-0.1,1.4,0,2.9,0,4.3
		c0.2,1.2,0.3,2.4,0.4,3.7c0.1,1.3,0.3,2.4,0.6,3.6c0.3,0.7,0.8,1.2,1.5,1.6c0.7,0.4,1.4,0.6,2.1,0.6c0.8,0.1,1.5-0.1,2.3-0.3
		c0.8-0.3,1.4-0.7,1.9-1.3c0.3-0.4,0.5-0.7,0.7-1c0.1-0.3,0.2-0.5,0.3-0.8c0-0.3,0-0.7,0-1.1s0-1,0.1-1.7c0-0.7,0.1-1.3,0.1-1.8
		s0-0.8,0-0.9L40.7,18.9L40.7,18.9z"/>
	<path class="st1" d="M72.7,2.4c0.2,4.4,0.3,8.8,0.2,13.3c-0.1,4.5-0.3,8.9-0.8,13.3c-0.3,2.3-1.1,4.2-2.6,5.8
		c-1.4,1.6-3.4,2.5-5.9,2.7c-1.4,0.1-2.9,0.1-4.5-0.2c-1.5-0.3-2.9-0.7-4.2-1.4s-2.3-1.6-3.1-2.7c-0.8-1.1-1.3-2.5-1.4-4
		c0-4.5,0.1-9.1,0.2-13.7s0.1-9.2,0.1-13.7l-0.1-0.1h0.1c0.5,0,1.1,0,1.7-0.1c0.6,0,1.3-0.1,1.9-0.1c0.7,0,1.3,0,1.9,0.1
		s1.2,0.1,1.7,0.3V2c-0.4,8.3-0.2,16.7,0.5,25.2c0.2,0.8,0.7,1.4,1.3,1.8s1.3,0.5,2,0.5s1.3-0.3,1.9-0.7c0.6-0.4,1-1.1,1.1-1.9
		c0.2-4.1,0.3-8.3,0.3-12.5c0-4.3,0.1-8.4,0.2-12.3c0.4,0,1-0.1,1.7-0.2s1.4-0.1,2.1-0.2c0.7,0,1.4,0,2.1,0.1
		C71.7,2,72.2,2.1,72.7,2.4z"/>
	<path class="st1" d="M96.3,37c-0.7,0-1.5,0-2.4-0.1s-1.7-0.1-2.4-0.1c-1.1-2.5-2.3-5-3.4-7.4s-2.1-4.7-2.9-6.9L84.7,21
		c-0.1-0.4-0.3-0.7-0.4-1.1c-0.1-0.3-0.2-0.5-0.3-0.5c0,0-0.1,0.4-0.1,1.2c-0.1,0.8-0.1,1.9-0.1,3.1s-0.1,2.7-0.1,4.2s0,3,0,4.5
		c0,0.8,0,1.6,0,2.3s0,1.4,0.1,2c-0.4,0.1-0.8,0.2-1.1,0.2c-0.4,0-0.8,0.1-1.1,0.1c-0.8,0-1.7-0.1-2.5-0.2c-0.8-0.1-1.7-0.2-2.4-0.2
		V33c0-3.3,0-6.4-0.1-9.3s-0.1-6-0.1-9.3c0-2.4,0-4.7,0.1-7s0.2-4.6,0.4-6.8c0.3-0.1,0.7-0.1,1.1-0.2c0.4,0,0.8-0.1,1.2-0.1
		c0.2,0,0.5,0,1,0s1,0.1,1.4,0.1c0.5,0.1,0.9,0.1,1.3,0.2s0.5,0.1,0.5,0.2c0.2,0.6,0.5,1.1,0.7,1.5s0.4,0.8,0.6,1.2s0.4,0.8,0.6,1.3
		s0.5,1.1,0.8,1.8c0.1,0.2,0.2,0.5,0.5,1c0.2,0.5,0.5,1,0.8,1.7c0.3,0.6,0.6,1.3,1,2c0.3,0.7,0.7,1.3,1,1.9s0.5,1,0.7,1.4
		s0.3,0.6,0.4,0.6c0.1-0.1,0.2-0.4,0.3-1C91,13.6,91,13,91,12.4c0-1.4,0-2.6-0.1-3.8S90.8,6.2,90.8,5c0-0.7,0-1.4,0-2.2
		c0-0.7,0-1.5,0.1-2.4c1.2-0.2,2.4-0.3,3.7-0.3c1.3,0,2.4,0.1,3.4,0.3V17c0,1.4,0.1,2.9,0.1,4.4s0,2.9,0,4.4c0,1,0,2,0,2.9
		s0,1.9,0,2.8c0,0.7,0,1.4,0,2.1s0,1.4,0,2.1v1c-0.1,0-0.2,0.1-0.5,0.2C97.3,37,96.9,37,96.3,37z"/>
</g>
<g>
	<g class="st0">
		<path class="st1" d="M184.3,12.9L184.3,12.9c-1.3,0.2-2.5,0.3-3.9,0.4s-2.7-0.1-3.9-0.4c0.2-0.9,0-1.7-0.6-2.3s-1.3-1-2.1-1.2
			s-1.6-0.1-2.4,0.3c-0.8,0.3-1.2,1-1.4,2c-0.1,0.2-0.1,0.5-0.1,0.7s0,0.5,0.1,0.7c0.3,0.8,0.7,1.4,1.3,1.6c0.6,0.3,1.3,0.5,2,0.6
			c1.8,0.2,3.5,0.8,5.1,1.7c1.6,1,2.8,2.2,3.8,3.7c0.6,0.8,1.1,1.6,1.4,2.5c0.3,0.9,0.5,1.8,0.5,2.8c0.1,1,0,1.9-0.2,2.9
			s-0.5,1.9-0.9,2.8c-0.4,1.1-1,2-1.6,2.7c-0.7,0.8-1.5,1.4-2.3,1.9c-0.9,0.5-1.8,0.8-2.8,1.1c-1,0.2-2,0.3-3.1,0.3
			c-1.5,0-3-0.3-4.5-0.8s-2.8-1.2-4-2.1c-1.2-0.9-2.1-2-2.8-3.3s-1-2.8-0.9-4.4v-0.2v-0.2c1.2-0.2,2.5-0.2,4-0.1
			c1.4,0.1,2.7,0.1,3.9,0.1c0.1,1.1,0.5,1.9,1.3,2.5c0.8,0.5,1.7,0.8,2.6,0.8c0.9,0,1.7-0.3,2.4-0.9s0.9-1.5,0.7-2.7
			c-0.1-0.8-0.4-1.5-0.9-2s-1.1-0.9-1.8-1.2s-1.5-0.5-2.3-0.7s-1.6-0.3-2.3-0.4s-1.3-0.4-1.9-0.7c-0.6-0.3-1.1-0.7-1.6-1.1
			c-1.6-1.5-2.6-3.2-3.1-5s-0.5-3.6-0.1-5.3s1.2-3.3,2.3-4.7s2.5-2.5,4.2-3.1c0.8-0.3,1.7-0.6,2.7-0.7s2-0.2,3-0.1s2,0.2,3,0.4
			s1.9,0.5,2.7,0.9c1.6,0.9,2.9,2.1,3.8,3.8S184.7,10.3,184.3,12.9z"/>
		<path class="st1" d="M195.3,9.4c-0.1,0.1-0.1,0.2-0.2,0.3C195,9.9,195,10,195,10c-0.1,0.1-0.1,0.7-0.2,1.8
			c-0.1,1.1-0.1,2.4-0.1,3.9s-0.1,3.1-0.1,4.7s0.1,3,0.2,4.2c0.1,1,0.4,2,0.8,2.9c0.4,0.9,1.1,1.6,2.1,1.8c0.8,0.1,1.5,0,2.1-0.3
			c0.7-0.3,1.2-0.8,1.5-1.5c0.4-0.8,0.5-1.6,0.5-2.5c-0.1-0.9,0-1.7,0.2-2.6c0.5,0.1,1,0.1,1.6,0.1s1.2-0.1,1.8-0.1s1.2,0,1.8,0.1
			c0.6,0,1.1,0.1,1.6,0.3c0.6,1.8,0.7,3.6,0.5,5.3c-0.3,1.8-0.9,3.4-1.8,4.8c-0.9,1.4-2.1,2.6-3.6,3.5s-3.2,1.4-5.1,1.4
			c-1.2,0.2-2.5,0.2-3.8,0s-2.5-0.5-3.7-1c-1.1-0.5-2.1-1.3-2.9-2.2s-1.2-2.2-1.4-3.6c-0.1-1.2-0.1-2.5-0.2-3.9
			c0-1.3-0.1-2.8-0.1-4.5s0-3.5,0-5.7c0-2.1,0-4.6,0.1-7.3c-0.1-0.6,0-1.2,0.1-1.8s0.3-1.2,0.5-1.7c0.3-0.9,0.7-1.7,1.2-2.5
			s1-1.4,1.7-2c0.4-0.3,0.8-0.5,1.2-0.7s0.9-0.4,1.4-0.5c1.6-0.5,3.1-0.7,4.7-0.6s3,0.5,4.3,1.1s2.6,1.4,3.7,2.4
			c1.1,1,2,2.1,2.6,3.4c0.7,1.3,1,2.7,1.2,4.2c0.1,1.5-0.1,3.1-0.6,4.6c-1.3,0.3-2.5,0.4-3.7,0.3s-2.5-0.2-3.8-0.5
			c-0.1-0.7-0.2-1.4-0.2-2.2s-0.1-1.6-0.3-2.3s-0.5-1.3-1-1.7s-1.2-0.7-2.2-0.6c-0.4,0.1-0.9,0.2-1.4,0.3
			C196,8.9,195.6,9.1,195.3,9.4z"/>
		<path class="st1" d="M233,6.8c0.2,0.5,0.4,1,0.5,1.6s0.2,1.1,0.3,1.6c0.1,0.9,0.1,1.7,0.1,2.5s0,1.7,0,2.5
			c-0.1,1.8-0.1,3.6-0.1,5.3s0,3.5-0.2,5.2l-0.2,1.7c-0.1,1.2-0.3,2.4-0.6,3.6c-0.3,1.2-0.8,2.3-1.4,3.3c-0.6,0.8-1.3,1.5-2.3,2
			c-0.9,0.5-1.9,0.9-3,1.2c-1,0.3-1.9,0.4-2.9,0.5s-2,0.1-3,0c-0.7-0.1-1.4-0.2-2.1-0.3c-0.7-0.1-1.3-0.3-1.9-0.6
			c-0.6-0.3-1.1-0.6-1.6-1.1c-0.5-0.4-0.9-1-1.2-1.7c-0.5-0.9-0.8-1.8-1-2.8s-0.2-2-0.3-3c-0.1-2.7-0.2-5.4-0.3-8
			c-0.1-2.7-0.1-5.4,0.1-8.1c0-1.5,0.2-3.1,0.6-4.7c0.4-1.6,1.1-2.9,2.1-4.1c0.3-0.3,0.7-0.7,1.2-0.9c1.1-0.5,2.4-1,3.7-1.2
			c1.3-0.3,2.6-0.4,4-0.3c1.3,0.1,2.6,0.3,3.9,0.7c1.3,0.4,2.4,1,3.4,1.7C231.8,4.5,232.5,5.6,233,6.8z M227.5,19.3l-0.1-3.5
			c0,0,0-0.4-0.1-1.1s-0.1-1.3-0.1-1.9c-0.1-1-0.3-1.8-0.8-2.6s-1.1-1.4-1.9-1.7c-0.7-0.3-1.4-0.3-2.1-0.2c-0.7,0.2-1.4,0.5-1.9,0.9
			c-1.2,0.9-2,2.1-2.4,3.5c-0.3,1.3-0.4,2.7-0.5,4.1s0,2.9,0,4.3c0.2,1.2,0.3,2.4,0.4,3.7c0.1,1.3,0.3,2.4,0.6,3.6
			c0.3,0.7,0.8,1.2,1.5,1.6s1.4,0.6,2.1,0.6c0.8,0.1,1.5-0.1,2.3-0.3c0.8-0.3,1.4-0.7,1.9-1.3c0.3-0.4,0.5-0.7,0.7-1
			c0.1-0.3,0.2-0.5,0.3-0.8s0-0.7,0-1.1s0-1,0.1-1.7c0-0.7,0.1-1.3,0.1-1.8s0-0.8,0-0.9v-2.4C227.6,19.3,227.5,19.3,227.5,19.3z"/>
		<path class="st1" d="M259.4,2.8c0.2,4.4,0.3,8.8,0.2,13.3c-0.1,4.5-0.3,8.9-0.8,13.3c-0.3,2.3-1.1,4.2-2.6,5.8
			c-1.4,1.6-3.4,2.5-5.9,2.7c-1.4,0.1-2.9,0.1-4.5-0.2s-2.9-0.7-4.2-1.4s-2.3-1.6-3.1-2.7c-0.8-1.1-1.3-2.5-1.4-4
			c0-4.5,0.1-9.1,0.2-13.7s0.1-9.2,0.1-13.7l-0.1-0.1h0.1c0.5,0,1.1,0,1.7-0.1s1.3-0.1,1.9-0.1s1.3,0,1.9,0.1s1.2,0.1,1.7,0.3v0.1
			c-0.4,8.3-0.2,16.7,0.5,25.2c0.2,0.8,0.7,1.4,1.3,1.8s1.3,0.5,2,0.5s1.3-0.3,1.9-0.7s1-1.1,1.1-1.9c0.2-4.1,0.3-8.3,0.3-12.5
			c0-4.3,0.1-8.4,0.2-12.3c0.4,0,1-0.1,1.7-0.2s1.4-0.1,2.1-0.2c0.7,0,1.4,0,2.1,0.1C258.5,2.4,259,2.6,259.4,2.8z"/>
		<path class="st1" d="M283.5,1.5c0.1,1.1,0.1,2.4,0.1,3.9s-0.1,2.8-0.3,4.1c-0.7-0.1-1.5-0.2-2.4-0.2c-1,0-2.2,0.1-3.9,0.2h-0.1
			h-0.1v0.1c0,0,0,0,0,0.1c0,0.2-0.1,0.4-0.1,0.8s0,0.9,0,1.7s0,1.8,0,3c0,1.3,0,2.9,0.1,4.8s0.1,4.3,0.1,7.1s0.1,6,0.2,9.7v0.1V37
			c-0.6,0.1-1.3,0.2-2,0.2s-1.5,0-2.2,0s-1.5,0-2.2,0s-1.4,0.1-2,0.2c0-0.1,0-0.8,0-1.9c0-1.1,0.1-2.7,0.1-4.9s0-5-0.1-8.4
			s-0.2-7.5-0.4-12.3l-0.1-0.1c-0.4-0.2-0.9-0.3-1.5-0.4s-1.2-0.1-1.9-0.1c-0.6,0-1.2,0-1.7,0s-0.9,0-1.1-0.1
			c-0.1-0.1-0.1-0.5-0.2-1s-0.1-1.2-0.1-2s0-1.6,0-2.5s0-1.7,0.1-2.6V1c0,0,0,0,0-0.1c3.5,0,7.1-0.1,10.8-0.1S280,1.1,283.5,1.5z"/>
	</g>
</g>
<g>
	<path class="st2" d="M110.1,0.1h-1.7"/>
	<path class="st2" d="M134.1,26.9c0.8,4.6,4.8,8,9.7,8c5.5,0,10-4.4,9.9-9.9c-0.1-1.9-0.7-3.6-1.7-5.2l-4.7-9.9
		c-0.8-1.6-2-2.8-3.2-3.6c0.1-0.6,0.1-1,0-1.7c-0.6-2.5-3.4-4.2-6.6-3.6c-3.2,0.7-5.3,3.3-4.7,5.8c0.2,0.7,0.5,1.3,0.8,1.9
		c-0.6,1.1-0.8,2.5-0.8,4"/>
	<path class="st2" d="M129.8,12.7c0-1.6-0.4-3.1-1.1-4.3c0.4-0.6,0.8-1.1,0.9-1.7c0.6-2.6-1.6-5.4-4.9-6c-3.3-0.7-6.3,1-6.8,3.8
		c-0.1,0.6-0.1,1.3,0.1,1.9c-1.3,0.9-2.3,2.1-3.1,3.7l-5.1,10.7c-0.2,0.4-0.4,0.9-0.6,1.2l-0.1,0.2l0,0c-0.5,1.1-0.7,2.4-0.7,3.7
		c0,5.7,4.5,10.2,10.2,10.2c5,0,9.1-3.7,10-8.3"/>
	<g>
		<path class="st3" d="M143.7,37.1c-5.6,0-10.1-4.6-10.1-10.1s4.6-10.1,10.1-10.1s10.1,4.6,10.1,10.1S149.4,37.1,143.7,37.1z
			 M143.7,18.6c-4.7,0-8.3,3.8-8.3,8.3c0,4.7,3.8,8.3,8.3,8.3s8.3-3.8,8.3-8.3C152.1,22.4,148.4,18.6,143.7,18.6z"/>
		<path class="st3" d="M143.7,37.8c-6,0-10.8-4.9-10.8-10.8s4.9-10.8,10.8-10.8S154.5,21,154.5,27C154.6,32.9,149.7,37.8,143.7,37.8
			z M143.7,17.5c-5.3,0-9.5,4.3-9.5,9.5s4.3,9.5,9.5,9.5s9.5-4.3,9.5-9.5C153.2,21.8,149,17.5,143.7,17.5z M143.7,36
			c-5.1,0-9.1-4.1-9.1-9.1s4.1-9.1,9.1-9.1s9.1,4.1,9.1,9.1S148.8,36,143.7,36z M143.7,19.3c-4.3,0-7.6,3.3-7.6,7.6s3.3,7.6,7.6,7.6
			s7.6-3.3,7.6-7.6C151.4,22.8,148,19.3,143.7,19.3z"/>
	</g>
	<path d="M144.2,19.3c4.4,0,7.8,3.5,7.8,7.8c0,4.4-3.5,7.8-7.8,7.8"/>
	<g>
		<path class="st3" d="M128.1,25.8c7.2-0.1,7.2-0.1,7.2-0.1"/>
		
			<rect x="128.1" y="22.6" transform="matrix(1 -5.594289e-03 5.594289e-03 1 -0.1425 0.7371)" class="st3" width="7.2" height="6.5"/>
	</g>
	<path class="st3" d="M132.6,26.6L131.8,14c-0.1-2.9,0.8-5.4,2.4-7.1c1.3-1.3,3.1-2.1,5.3-2c3.4,0,6.4,1.9,8.2,5.4l6.2,13l-2.4,1
		l-6.2-13c-1.3-2.4-3.2-3.9-5.8-3.9h-0.1c-1.3,0-2.4,0.5-3.2,1.3c-1,1.1-1.6,2.9-1.6,5.1l0.8,12.5L132.6,26.6z"/>
	<rect x="128.5" y="13.4" class="st3" width="4.9" height="4"/>
	<path class="st3" d="M133.4,9.5c-0.9-0.7-1.3-1.6-1.6-2.6c-0.6-2.8,1.7-5.7,5.3-6.4c3.4-0.7,6.7,1,7.3,4c0.2,0.9,0.1,1.6-0.2,2.4
		l-2.5-1c0.2-0.3,0.2-0.7,0.1-1c-0.2-1.3-2-2.1-4-1.7s-3.2,1.8-3.1,3.1c0.1,0.4,0.3,0.8,0.7,1.1L133.4,9.5z"/>
	<polygon class="st3" points="142.4,6.9 146.1,16.8 149.5,17.7 149.9,16.2 147.4,11 146.1,8.2 	"/>
	<polygon class="st3" points="137.3,7.3 138.9,19 134.8,22.8 134.2,19.2 133.8,10.5 135.1,8 	"/>
	<path class="st3" d="M137.5,6.2c0,0-2.2-2.3,0.1-4.3l-4.3,2.9l0.1,2"/>
	<path class="st4" d="M144.2,35.3c-4.5,0-8-3.5-8-8s3.5-8,8-8c4.5,0,8,3.5,8,8C152.3,31.5,148.7,35.3,144.2,35.3z M144.2,20
		c-4,0-7.3,3.1-7.3,7.3c0,4,3.1,7.3,7.3,7.3c4,0,7.3-3.1,7.3-7.3S148.3,20,144.2,20z"/>
	<g>
		<path class="st3" d="M108,27c0-5.6,4.6-10.1,10.1-10.1s10.1,4.6,10.1,10.1s-4.6,10.1-10.1,10.1C112.5,37.1,108,32.5,108,27z
			 M109.8,27c0,4.6,3.8,8.3,8.3,8.3s8.3-3.6,8.3-8.3c0-4.6-3.6-8.3-8.3-8.3S109.7,22.4,109.8,27z"/>
		<path class="st3" d="M107.3,27c0-6,4.9-10.8,10.8-10.8S129,21,129,27s-4.9,10.8-10.8,10.8C112.2,37.8,107.2,32.9,107.3,27z
			 M108.6,27.1c0,5.3,4.3,9.5,9.5,9.5s9.5-4.3,9.5-9.5s-4.3-9.5-9.5-9.5C112.9,17.5,108.6,21.8,108.6,27.1z M109,26.9
			c0-5.1,4.1-9.1,9.1-9.1s9.1,4.1,9.1,9.1s-4.1,9.1-9.1,9.1S109,31.9,109,26.9z M110.5,26.9c0,4.3,3.3,7.6,7.6,7.6s7.6-3.3,7.6-7.6
			s-3.3-7.6-7.6-7.6S110.4,22.8,110.5,26.9z"/>
	</g>
	<path d="M117.6,19.3c4.4,0,7.8,3.5,7.8,7.8c0,4.4-3.5,7.8-7.8,7.8"/>
	<path class="st3" d="M126.5,26.2l0.8-12.5c0-2.1-0.6-4-1.6-5.1c-0.8-0.8-1.9-1.3-3.2-1.3h-0.1c-2.5,0-4.5,1.4-5.8,3.9l-6.2,13
		l-2.4-1l6.2-13c1.8-3.4,4.8-5.4,8.2-5.4c2.1-0.1,4,0.7,5.3,2c1.6,1.7,2.5,4.2,2.4,7.1l-0.8,12.6L126.5,26.2z"/>
	<path class="st3" d="M126.6,7.4c0.4-0.3,0.6-0.7,0.7-1.1c0.1-1.3-1.2-2.7-3.1-3.1c-1.9-0.4-3.8,0.4-4,1.7c-0.1,0.3-0.1,0.7,0.1,1
		l-2.5,1c-0.3-0.8-0.4-1.5-0.2-2.4c0.6-2.9,3.9-4.7,7.3-4c3.5,0.7,5.9,3.5,5.3,6.4c-0.3,1-0.7,1.9-1.6,2.6L126.6,7.4z"/>
	<polygon class="st3" points="115.7,8.2 114.4,11 112,16.2 112.4,17.7 115.7,16.8 119.5,6.9 	"/>
	<polygon class="st3" points="126.8,8 128.1,10.5 127.7,19.2 127.1,22.8 122.9,19 124.5,7.3 	"/>
	<path class="st3" d="M128.4,6.9l0.1-2l-4.3-2.9c2.3,1.9,0.1,4.3,0.1,4.3"/>
	<path class="st4" d="M118.1,35.3c-4.5,0-8-3.5-8-8s3.5-8,8-8s8,3.5,8,8C126.3,31.5,122.6,35.3,118.1,35.3z M118.1,20
		c-4,0-7.3,3.1-7.3,7.3c0,4,3.1,7.3,7.3,7.3c4,0,7.3-3.1,7.3-7.3S122.2,20,118.1,20z"/>
</g>
</svg>
