<svg width="334" height="46" viewBox="0 0 334 46" fill="none" xmlns="http://www.w3.org/2000/svg">
<path d="M24.0173 45.3061C24.7128 45.3061 25.2037 45.2652 25.49 45.1833C25.7764 45.1015 25.9605 45.0402 26.0423 44.9992V43.772C26.0423 42.9539 26.0218 42.1357 25.9809 41.3175C25.9809 40.4994 25.9809 39.6812 25.9809 38.8631C25.9809 37.7177 25.9809 36.5927 25.9809 35.4882C26.0218 34.3837 26.0423 33.2382 26.0423 32.0519C26.0423 30.2929 26.0423 28.5338 26.0423 26.7748C26.0423 25.0158 26.0218 23.2772 25.9809 21.5591V1.80056C24.7946 1.55511 23.4446 1.43239 21.931 1.43239C20.3766 1.43239 18.9039 1.55511 17.513 1.80056C17.4721 2.82326 17.4312 3.78459 17.3903 4.68457C17.3903 5.54363 17.3903 6.40269 17.3903 7.26176C17.3903 8.73444 17.4107 10.1867 17.4516 11.6184C17.5335 13.0093 17.5744 14.5229 17.5744 16.1592C17.5744 16.8546 17.5335 17.5705 17.4516 18.3069C17.3698 19.0432 17.2676 19.4523 17.1448 19.5341C17.1039 19.5341 16.9607 19.3091 16.7153 18.8591C16.4699 18.3682 16.163 17.7955 15.7949 17.141C15.4676 16.4456 15.0994 15.6888 14.6904 14.8706C14.2813 14.0116 13.8927 13.2139 13.5245 12.4775C13.1563 11.7003 12.8291 11.0253 12.5427 10.4526C12.2563 9.87986 12.0723 9.49124 11.9904 9.2867C11.6223 8.42763 11.295 7.7322 11.0087 7.2004C10.7632 6.62769 10.5178 6.11634 10.2723 5.66635C10.0678 5.21637 9.84278 4.74593 9.59733 4.25503C9.35189 3.76414 9.08599 3.15052 8.79963 2.41418C8.79963 2.33236 8.57464 2.25055 8.12465 2.16873C7.71557 2.08692 7.22468 2.02555 6.65197 1.98465C6.07926 1.90283 5.50655 1.86192 4.93384 1.86192C4.36113 1.82101 3.95205 1.80056 3.7066 1.80056C3.21571 1.80056 2.72481 1.82101 2.23392 1.86192C1.78393 1.90283 1.3544 1.96419 0.945322 2.04601C0.740783 4.66411 0.597606 7.36403 0.51579 10.1458C0.433974 12.8866 0.393066 15.6683 0.393066 18.491C0.393066 22.3363 0.41352 26.018 0.454428 29.5361C0.536244 33.0542 0.577152 36.7563 0.577152 40.6426V44.9379C1.51803 44.9379 2.47937 44.9992 3.46115 45.122C4.48385 45.2447 5.48609 45.3061 6.46788 45.3061C6.91787 45.3061 7.36785 45.2856 7.81784 45.2447C8.26783 45.2038 8.71781 45.122 9.1678 44.9992C9.12689 44.3038 9.10644 43.5266 9.10644 42.6675C9.10644 41.7675 9.10644 40.8471 9.10644 39.9062C9.10644 38.1881 9.10644 36.4086 9.10644 34.5677C9.14735 32.7269 9.18825 31.0497 9.22916 29.5361C9.27007 28.0225 9.31098 26.7748 9.35188 25.793C9.4337 24.8112 9.49506 24.3203 9.53597 24.3203C9.61779 24.3203 9.72006 24.5249 9.84278 24.9339C10.0064 25.3021 10.17 25.7112 10.3337 26.1612L10.9473 28.002C11.8882 30.6201 13.0131 33.361 14.3222 36.2245C15.6721 39.0472 17.0221 41.9721 18.3721 44.9992C19.1902 44.9992 20.1311 45.0402 21.1947 45.122C22.2583 45.2447 23.1992 45.3061 24.0173 45.3061Z" fill="#3E4B5F"/>
<path d="M55.3761 8.67308C54.8852 7.2413 54.0466 5.99361 52.8603 4.93001C51.6739 4.03004 50.324 3.35506 48.8104 2.90507C47.3377 2.41418 45.8037 2.12782 44.2082 2.04601C42.6537 1.96419 41.0788 2.08692 39.4834 2.41418C37.9289 2.70053 36.4767 3.17097 35.1267 3.8255C34.5949 4.15276 34.1245 4.52093 33.7154 4.93001C32.4472 6.36179 31.5882 8.01855 31.1382 9.90032C30.7291 11.7412 30.5041 13.582 30.4632 15.4229C30.2587 18.6546 30.2178 21.8863 30.3405 25.118C30.5041 28.3088 30.6473 31.4997 30.77 34.6905C30.8109 35.8768 30.9132 37.0631 31.0768 38.2495C31.2814 39.3949 31.67 40.4789 32.2427 41.5016C32.6109 42.3198 33.0813 42.9948 33.654 43.5266C34.2267 44.0175 34.8608 44.4265 35.5562 44.7538C36.2926 45.0811 37.0494 45.3061 37.8266 45.4288C38.6448 45.5924 39.4834 45.7151 40.3425 45.797C41.5288 45.8788 42.6947 45.8788 43.8401 45.797C45.0264 45.7151 46.1923 45.5106 47.3377 45.1833C48.6058 44.8561 49.7922 44.4061 50.8967 43.8334C52.0421 43.2198 52.9625 42.4221 53.658 41.4403C54.3943 40.2539 54.9466 38.9449 55.3147 37.5131C55.6829 36.0404 55.9079 34.5882 55.9897 33.1564L56.1738 31.1315C56.3374 29.0043 56.3988 26.918 56.3579 24.8726C56.317 22.8272 56.3579 20.7204 56.4806 18.5523C56.5215 17.5296 56.5215 16.5274 56.4806 15.5456C56.4806 14.5229 56.4397 13.5002 56.3579 12.4775C56.2761 11.823 56.1533 11.1889 55.9897 10.5753C55.867 9.92077 55.6624 9.2867 55.3761 8.67308ZM48.8104 26.5907C48.8104 26.6725 48.7899 27.0203 48.749 27.6339C48.749 28.2475 48.7286 28.9634 48.6877 29.7815C48.6058 30.6406 48.5649 31.336 48.5649 31.8678C48.6058 32.3587 48.6058 32.7883 48.5649 33.1564C48.524 33.5246 48.4218 33.8723 48.2581 34.1996C48.0945 34.4859 47.8286 34.8746 47.4604 35.3655C46.8468 36.0609 46.09 36.5722 45.19 36.8995C44.2901 37.1858 43.3901 37.3086 42.4901 37.2677C41.5901 37.1859 40.7515 36.9199 39.9743 36.47C39.197 36.02 38.6039 35.3859 38.1948 34.5677C37.7857 33.2178 37.5403 31.8065 37.4585 30.3338C37.3766 28.8202 37.2335 27.3475 37.0289 25.9157C36.9471 24.1976 36.9267 22.4795 36.9676 20.7613C37.0494 19.0432 37.2539 17.4069 37.5812 15.8524C38.0721 14.1343 39.0334 12.723 40.4652 11.6184C41.1197 11.1275 41.8765 10.7798 42.7356 10.5753C43.5946 10.3708 44.4332 10.4321 45.2514 10.7594C46.1923 11.2094 46.9286 11.9048 47.4604 12.8457C48.0331 13.7866 48.3604 14.8297 48.4422 15.9751C48.4831 16.6706 48.524 17.4274 48.5649 18.2455C48.6467 19.0228 48.6877 19.4318 48.6877 19.4728L48.8104 23.6454V26.5907Z" fill="#3E4B5F"/>
<path d="M87.0018 3.94822C86.511 3.66187 85.8769 3.47778 85.0996 3.39597C84.3224 3.31415 83.5042 3.2937 82.6452 3.33461C81.7861 3.37551 80.927 3.45733 80.068 3.58005C79.2498 3.66187 78.5748 3.72323 78.043 3.76414C77.9203 8.50945 77.8385 13.4184 77.7976 18.491C77.7976 23.5635 77.6953 28.5543 77.4908 33.4632C77.2862 34.4041 76.8362 35.1405 76.1408 35.6723C75.4454 36.2041 74.6886 36.4904 73.8704 36.5313C73.0523 36.5722 72.2546 36.3677 71.4773 35.9177C70.741 35.4677 70.2296 34.7518 69.9433 33.77C69.1251 23.584 68.941 13.5411 69.391 3.64141V3.58005C68.7774 3.41642 68.1024 3.31415 67.3661 3.27324C66.6297 3.19143 65.8729 3.15052 65.0957 3.15052C64.3184 3.15052 63.5412 3.17097 62.764 3.21188C62.0276 3.25279 61.3526 3.27324 60.739 3.27324H60.6777L60.739 3.33461C60.8208 8.73444 60.8004 14.1752 60.6777 19.6568C60.5549 25.1385 60.4936 30.5792 60.4936 35.9791C60.5754 37.8608 61.1072 39.4767 62.089 40.8266C63.1117 42.1357 64.3594 43.1993 65.832 44.0175C67.3456 44.7947 69.0228 45.3265 70.8637 45.6129C72.7046 45.9401 74.484 46.0219 76.2022 45.8583C79.1475 45.572 81.4793 44.4879 83.1974 42.6061C84.9155 40.7244 85.9382 38.4335 86.2655 35.7336C86.8382 30.4565 87.1655 25.1589 87.2473 19.8409C87.3291 14.482 87.2473 9.18443 87.0018 3.94822Z" fill="#3E4B5F"/>
<path d="M115.221 45.3061C115.917 45.3061 116.407 45.2652 116.694 45.1833C116.98 45.1015 117.164 45.0402 117.246 44.9992V43.772C117.246 42.9539 117.226 42.1357 117.185 41.3175C117.185 40.4994 117.185 39.6812 117.185 38.8631C117.185 37.7177 117.185 36.5927 117.185 35.4882C117.226 34.3837 117.246 33.2382 117.246 32.0519C117.246 30.2929 117.246 28.5338 117.246 26.7748C117.246 25.0158 117.226 23.2772 117.185 21.5591V1.80056C115.998 1.55511 114.648 1.43239 113.135 1.43239C111.58 1.43239 110.108 1.55511 108.717 1.80056C108.676 2.82326 108.635 3.78459 108.594 4.68457C108.594 5.54363 108.594 6.40269 108.594 7.26176C108.594 8.73444 108.614 10.1867 108.655 11.6184C108.737 13.0093 108.778 14.5229 108.778 16.1592C108.778 16.8546 108.737 17.5705 108.655 18.3069C108.574 19.0432 108.471 19.4523 108.349 19.5341C108.308 19.5341 108.164 19.3091 107.919 18.8591C107.674 18.3682 107.367 17.7955 106.999 17.141C106.671 16.4456 106.303 15.6888 105.894 14.8706C105.485 14.0116 105.096 13.2139 104.728 12.4775C104.36 11.7003 104.033 11.0253 103.746 10.4526C103.46 9.87986 103.276 9.49124 103.194 9.2867C102.826 8.42763 102.499 7.7322 102.212 7.2004C101.967 6.62769 101.721 6.11634 101.476 5.66635C101.271 5.21637 101.047 4.74593 100.801 4.25503C100.556 3.76414 100.29 3.15052 100.003 2.41418C100.003 2.33236 99.7784 2.25055 99.3284 2.16873C98.9193 2.08692 98.4284 2.02555 97.8557 1.98465C97.283 1.90283 96.7103 1.86192 96.1376 1.86192C95.5649 1.82101 95.1558 1.80056 94.9103 1.80056C94.4194 1.80056 93.9285 1.82101 93.4376 1.86192C92.9877 1.90283 92.5581 1.96419 92.149 2.04601C91.9445 4.66411 91.8013 7.36403 91.7195 10.1458C91.6377 12.8866 91.5968 15.6683 91.5968 18.491C91.5968 22.3363 91.6172 26.018 91.6582 29.5361C91.74 33.0542 91.7809 36.7563 91.7809 40.6426V44.9379C92.7218 44.9379 93.6831 44.9992 94.6649 45.122C95.6876 45.2447 96.6898 45.3061 97.6716 45.3061C98.1216 45.3061 98.5716 45.2856 99.0216 45.2447C99.4716 45.2038 99.9215 45.122 100.372 44.9992C100.331 44.3038 100.31 43.5266 100.31 42.6675C100.31 41.7675 100.31 40.8471 100.31 39.9062C100.31 38.1881 100.31 36.4086 100.31 34.5677C100.351 32.7269 100.392 31.0497 100.433 29.5361C100.474 28.0225 100.515 26.7748 100.556 25.793C100.637 24.8112 100.699 24.3203 100.74 24.3203C100.822 24.3203 100.924 24.5249 101.047 24.9339C101.21 25.3021 101.374 25.7112 101.537 26.1612L102.151 28.002C103.092 30.6201 104.217 33.361 105.526 36.2245C106.876 39.0472 108.226 41.9721 109.576 44.9992C110.394 44.9992 111.335 45.0402 112.398 45.122C113.462 45.2447 114.403 45.3061 115.221 45.3061Z" fill="#3E4B5F"/>
<path d="M215.41 15.9138C215.983 12.8457 215.738 10.3094 214.674 8.30491C213.611 6.30042 212.097 4.78683 210.133 3.76414C209.152 3.31415 208.067 2.94598 206.881 2.65962C205.736 2.37327 204.549 2.20964 203.322 2.16873C202.136 2.08692 200.95 2.12782 199.763 2.29145C198.577 2.41418 197.493 2.68008 196.511 3.08916C194.547 3.90731 192.87 5.155 191.479 6.83223C190.129 8.50945 189.209 10.3708 188.718 12.4161C188.227 14.4615 188.248 16.5683 188.779 18.7364C189.352 20.9045 190.579 22.8886 192.461 24.6885C193.034 25.1794 193.668 25.6089 194.363 25.9771C195.059 26.3453 195.816 26.6112 196.634 26.7748C197.493 26.9384 198.413 27.1225 199.395 27.3271C200.377 27.4907 201.277 27.7566 202.095 28.1248C202.954 28.4929 203.69 28.9838 204.304 29.5974C204.918 30.1702 205.286 30.9474 205.408 31.9292C205.654 33.361 205.368 34.4246 204.549 35.12C203.772 35.8154 202.831 36.1836 201.727 36.2245C200.663 36.2245 199.64 35.8973 198.659 35.2427C197.718 34.5882 197.206 33.6064 197.125 32.2974C195.734 32.3383 194.179 32.3178 192.461 32.236C190.743 32.1133 189.168 32.1542 187.736 32.3587V32.7269C187.614 34.6905 187.961 36.4495 188.779 38.004C189.598 39.5176 190.702 40.8062 192.093 41.8698C193.484 42.9334 195.059 43.772 196.818 44.3856C198.618 44.9583 200.418 45.2651 202.218 45.3061C203.486 45.347 204.713 45.2447 205.899 44.9992C207.127 44.7129 208.252 44.2834 209.274 43.7107C210.338 43.1379 211.279 42.4016 212.097 41.5016C212.915 40.6017 213.57 39.5176 214.061 38.2495C214.551 37.1859 214.899 36.0813 215.104 34.9359C215.349 33.7496 215.431 32.5837 215.349 31.4383C215.308 30.2929 215.104 29.1884 214.735 28.1248C214.367 27.0202 213.815 25.9976 213.079 25.0567C211.892 23.2976 210.358 21.8454 208.477 20.7C206.636 19.5546 204.631 18.8591 202.463 18.6137C201.604 18.491 200.806 18.266 200.07 17.9387C199.334 17.6114 198.802 16.9569 198.475 15.9751C198.434 15.6888 198.393 15.4229 198.352 15.1774C198.352 14.8911 198.393 14.6047 198.475 14.3184C198.638 13.1729 199.17 12.3957 200.07 11.9866C201.011 11.5775 201.972 11.4753 202.954 11.6798C203.936 11.8843 204.774 12.3548 205.47 13.0911C206.165 13.8275 206.39 14.7479 206.145 15.8524C207.577 16.2615 209.111 16.4456 210.747 16.4047C212.383 16.3228 213.917 16.1592 215.349 15.9138H215.41Z" fill="#3E4B5F"/>
<path d="M228.625 11.7412C228.952 11.4139 229.402 11.1889 229.975 11.0662C230.588 10.9435 231.161 10.8412 231.693 10.7594C232.879 10.7185 233.738 10.9639 234.27 11.4957C234.843 12.0275 235.231 12.723 235.436 13.582C235.641 14.4002 235.743 15.3002 235.743 16.2819C235.784 17.2637 235.865 18.1432 235.988 18.9205C237.543 19.2069 239.036 19.4114 240.468 19.5341C241.94 19.6159 243.433 19.4932 244.947 19.1659C245.602 17.2842 245.847 15.4433 245.683 13.6434C245.52 11.8434 245.049 10.1867 244.272 8.67308C243.495 7.11858 242.452 5.74817 241.143 4.56184C239.834 3.37551 238.361 2.43463 236.725 1.7392C235.129 1.00286 233.411 0.573325 231.57 0.450603C229.729 0.327879 227.868 0.573325 225.986 1.18694C225.414 1.35057 224.861 1.55511 224.329 1.80056C223.798 2.0051 223.307 2.271 222.857 2.59826C222.08 3.2937 221.405 4.0914 220.832 4.99137C220.3 5.89135 219.85 6.87313 219.482 7.93674C219.236 8.55036 219.032 9.22533 218.868 9.96168C218.746 10.6571 218.725 11.3525 218.807 12.048C218.766 15.3615 218.725 18.2864 218.684 20.8227C218.684 23.3181 218.684 25.568 218.684 27.5725C218.725 29.5361 218.766 31.3156 218.807 32.911C218.848 34.5064 218.909 36.0404 218.991 37.5131C219.155 39.2312 219.686 40.663 220.586 41.8084C221.527 42.9539 222.673 43.8538 224.023 44.5084C225.373 45.122 226.825 45.5106 228.379 45.6742C229.934 45.8788 231.447 45.8788 232.92 45.6742C235.17 45.6333 237.175 45.0811 238.934 44.0175C240.734 42.9129 242.186 41.5221 243.29 39.8449C244.395 38.1676 245.111 36.2859 245.438 34.1996C245.765 32.0724 245.581 29.9452 244.886 27.818C244.313 27.6543 243.658 27.5521 242.922 27.5111C242.227 27.4702 241.511 27.4498 240.774 27.4498C240.038 27.4498 239.302 27.4702 238.565 27.5111C237.87 27.5521 237.236 27.5316 236.663 27.4498C236.459 28.4725 236.377 29.5156 236.418 30.5792C236.5 31.6019 236.315 32.5837 235.865 33.5246C235.456 34.3428 234.843 34.9359 234.025 35.3041C233.247 35.6314 232.409 35.7541 231.509 35.6723C230.322 35.345 229.463 34.6291 228.932 33.5246C228.441 32.3792 228.134 31.2133 228.011 30.027C227.888 28.5952 227.827 26.918 227.827 24.9953C227.827 23.0317 227.848 21.15 227.888 19.35C227.929 17.5501 227.97 15.9956 228.011 14.6865C228.093 13.3775 228.175 12.6616 228.257 12.5389C228.298 12.4571 228.338 12.3343 228.379 12.1707C228.461 11.9662 228.543 11.823 228.625 11.7412Z" fill="#3E4B5F"/>
<path d="M273.559 8.67308C273.068 7.2413 272.229 5.99361 271.043 4.93001C269.857 4.03004 268.507 3.35506 266.993 2.90507C265.52 2.41418 263.986 2.12782 262.391 2.04601C260.837 1.96419 259.262 2.08692 257.666 2.41418C256.112 2.70053 254.659 3.17097 253.31 3.8255C252.778 4.15276 252.307 4.52093 251.898 4.93001C250.63 6.36179 249.771 8.01855 249.321 9.90032C248.912 11.7412 248.687 13.582 248.646 15.4229C248.441 18.6546 248.401 21.8863 248.523 25.118C248.687 28.3088 248.83 31.4997 248.953 34.6905C248.994 35.8768 249.096 37.0631 249.26 38.2495C249.464 39.3949 249.853 40.4789 250.426 41.5016C250.794 42.3198 251.264 42.9948 251.837 43.5266C252.41 44.0175 253.044 44.4265 253.739 44.7538C254.475 45.0811 255.232 45.3061 256.009 45.4288C256.828 45.5924 257.666 45.7151 258.525 45.797C259.712 45.8788 260.877 45.8788 262.023 45.797C263.209 45.7151 264.375 45.5106 265.521 45.1833C266.789 44.8561 267.975 44.4061 269.079 43.8334C270.225 43.2198 271.145 42.4221 271.841 41.4403C272.577 40.2539 273.129 38.9449 273.498 37.5131C273.866 36.0404 274.091 34.5882 274.173 33.1564L274.357 31.1315C274.52 29.0043 274.582 26.918 274.541 24.8726C274.5 22.8272 274.541 20.7204 274.663 18.5523C274.704 17.5296 274.704 16.5274 274.663 15.5456C274.663 14.5229 274.622 13.5002 274.541 12.4775C274.459 11.823 274.336 11.1889 274.173 10.5753C274.05 9.92077 273.845 9.2867 273.559 8.67308ZM266.993 26.5907C266.993 26.6725 266.973 27.0203 266.932 27.6339C266.932 28.2475 266.911 28.9634 266.87 29.7815C266.789 30.6406 266.748 31.336 266.748 31.8678C266.789 32.3587 266.789 32.7883 266.748 33.1564C266.707 33.5246 266.605 33.8723 266.441 34.1996C266.277 34.4859 266.011 34.8746 265.643 35.3655C265.03 36.0609 264.273 36.5722 263.373 36.8995C262.473 37.1858 261.573 37.3086 260.673 37.2677C259.773 37.1859 258.934 36.9199 258.157 36.47C257.38 36.02 256.787 35.3859 256.378 34.5677C255.969 33.2178 255.723 31.8065 255.641 30.3338C255.559 28.8202 255.416 27.3475 255.212 25.9157C255.13 24.1976 255.109 22.4795 255.15 20.7613C255.232 19.0432 255.437 17.4069 255.764 15.8524C256.255 14.1343 257.216 12.723 258.648 11.6184C259.303 11.1275 260.059 10.7798 260.918 10.5753C261.777 10.3708 262.616 10.4321 263.434 10.7594C264.375 11.2094 265.111 11.9048 265.643 12.8457C266.216 13.7866 266.543 14.8297 266.625 15.9751C266.666 16.6706 266.707 17.4274 266.748 18.2455C266.83 19.0228 266.87 19.4318 266.87 19.4728L266.993 23.6454V26.5907Z" fill="#3E4B5F"/>
<path d="M305.185 3.94822C304.694 3.66187 304.06 3.47778 303.282 3.39597C302.505 3.31415 301.687 3.2937 300.828 3.33461C299.969 3.37551 299.11 3.45733 298.251 3.58005C297.433 3.66187 296.758 3.72323 296.226 3.76414C296.103 8.50945 296.021 13.4184 295.98 18.491C295.98 23.5635 295.878 28.5543 295.674 33.4632C295.469 34.4041 295.019 35.1405 294.324 35.6723C293.628 36.2041 292.871 36.4904 292.053 36.5313C291.235 36.5722 290.437 36.3677 289.66 35.9177C288.924 35.4677 288.412 34.7518 288.126 33.77C287.308 23.584 287.124 13.5411 287.574 3.64141V3.58005C286.96 3.41642 286.285 3.31415 285.549 3.27324C284.813 3.19143 284.056 3.15052 283.279 3.15052C282.501 3.15052 281.724 3.17097 280.947 3.21188C280.21 3.25279 279.535 3.27324 278.922 3.27324H278.86L278.922 3.33461C279.004 8.73444 278.983 14.1752 278.86 19.6568C278.738 25.1385 278.676 30.5792 278.676 35.9791C278.758 37.8608 279.29 39.4767 280.272 40.8266C281.294 42.1357 282.542 43.1993 284.015 44.0175C285.528 44.7947 287.206 45.3265 289.047 45.6129C290.887 45.9401 292.667 46.0219 294.385 45.8583C297.33 45.572 299.662 44.4879 301.38 42.6061C303.098 40.7244 304.121 38.4335 304.448 35.7336C305.021 30.4565 305.348 25.1589 305.43 19.8409C305.512 14.482 305.43 9.18443 305.185 3.94822Z" fill="#3E4B5F"/>
<path d="M333.895 2.35282C329.681 1.90283 325.345 1.69829 320.886 1.7392C316.468 1.7392 312.173 1.75965 308 1.80056C308 1.84147 308 1.86192 308 1.86192C308.041 1.86192 308.061 1.88238 308.061 1.92329C307.98 2.90507 307.939 3.92777 307.939 4.99137C307.939 6.05498 307.939 7.05722 307.939 7.9981C307.98 8.89807 308.021 9.67532 308.061 10.3298C308.143 10.9844 308.225 11.3935 308.307 11.5571C308.552 11.6389 308.982 11.6798 309.595 11.6798C310.209 11.6798 310.884 11.7003 311.62 11.7412C312.357 11.7412 313.093 11.7821 313.829 11.8639C314.566 11.9048 315.179 12.048 315.67 12.2934L315.732 12.3548C315.977 18.0819 316.12 22.9704 316.161 27.0203C316.243 31.0701 316.263 34.4041 316.223 37.0222C316.223 39.5994 316.202 41.5425 316.161 42.8516C316.12 44.1606 316.12 44.897 316.161 45.0606C316.898 44.9379 317.695 44.8765 318.554 44.8765C319.413 44.8765 320.272 44.8765 321.132 44.8765C322.031 44.8765 322.911 44.8765 323.77 44.8765C324.67 44.8356 325.488 44.7538 326.225 44.6311V44.5084C326.143 40.0494 326.081 36.1836 326.04 32.911C326 29.5974 325.959 26.7748 325.918 24.4431C325.877 22.0704 325.836 20.1477 325.795 18.675C325.795 17.1615 325.795 15.9547 325.795 15.0547C325.795 14.1138 325.795 13.4388 325.795 13.0298C325.836 12.5798 325.877 12.2525 325.918 12.048C325.918 12.0071 325.918 11.9866 325.918 11.9866C325.959 11.9457 325.979 11.9048 325.979 11.8639H326.163C328.086 11.7821 329.62 11.7207 330.765 11.6798C331.911 11.6389 332.872 11.7003 333.649 11.8639C333.854 10.3912 333.956 8.77535 333.956 7.01631C333.997 5.25727 333.977 3.70277 333.895 2.35282Z" fill="#3E4B5F"/>
<g clip-path="url(#clip0_301_2930)">
<path d="M144.755 17.2695H138.17V20.562H144.755V17.2695Z" fill="white"/>
<path d="M151.341 17.2695H144.756V20.562H151.341V17.2695Z" fill="black"/>
<path d="M167.802 17.2695H161.217V20.562H167.802V17.2695Z" fill="white"/>
<path d="M174.388 17.2695H167.803V20.562H174.388V17.2695Z" fill="black"/>
<path d="M144.755 20.5566H138.17V23.8491H144.755V20.5566Z" fill="white"/>
<path d="M151.341 20.5566H144.756V23.8491H151.341V20.5566Z" fill="black"/>
<path d="M167.802 20.5566H161.217V23.8491H167.802V20.5566Z" fill="white"/>
<path d="M174.388 20.5566H167.803V23.8491H174.388V20.5566Z" fill="black"/>
<path d="M144.755 23.8594H138.17V27.1518H144.755V23.8594Z" fill="white"/>
<path d="M151.341 23.8594H144.756V27.1518H151.341V23.8594Z" fill="black"/>
<path d="M167.802 23.8594H161.217V27.1518H167.802V23.8594Z" fill="white"/>
<path d="M174.388 23.8594H167.803V27.1518H174.388V23.8594Z" fill="black"/>
<path d="M144.755 27.1465H138.17V30.4389H144.755V27.1465Z" fill="white"/>
<path d="M151.341 27.1465H144.756V30.4389H151.341V27.1465Z" fill="black"/>
<path d="M167.802 27.1465H161.217V30.4389H167.802V27.1465Z" fill="white"/>
<path d="M174.388 27.1465H167.803V30.4389H174.388V27.1465Z" fill="black"/>
<path d="M154.632 13.9707H134.877V17.2632H154.632V13.9707Z" fill="#EB5D2D"/>
<path d="M177.679 13.9707H157.924V17.2632H177.679V13.9707Z" fill="#EB5D2D"/>
<path d="M138.169 17.2578H134.877V20.5503H138.169V17.2578Z" fill="#EB5D2D"/>
<path d="M154.633 17.2578H151.34V20.5503H154.633V17.2578Z" fill="#EB5D2D"/>
<path d="M161.217 17.2578H157.924V20.5503H161.217V17.2578Z" fill="#EB5D2D"/>
<path d="M177.679 17.2578H174.387V20.5503H177.679V17.2578Z" fill="#EB5D2D"/>
<path d="M177.679 20.5586H174.387V23.8511H177.679V20.5586Z" fill="#EB5D2D"/>
<path d="M138.169 23.8477H134.877V27.1401H138.169V23.8477Z" fill="#EB5D2D"/>
<path d="M154.633 23.8477H151.34V27.1401H154.633V23.8477Z" fill="#EB5D2D"/>
<path d="M161.217 23.8477H157.924V27.1401H161.217V23.8477Z" fill="#EB5D2D"/>
<path d="M177.679 23.8477H174.387V27.1401H177.679V23.8477Z" fill="#EB5D2D"/>
<path d="M128.292 23.8477H125V27.1401H128.292V23.8477Z" fill="#EB5D2D"/>
<path d="M128.292 27.1348H125V30.4272H128.292V27.1348Z" fill="#EB5D2D"/>
<path d="M138.169 27.1367H134.877V30.4292H138.169V27.1367Z" fill="#EB5D2D"/>
<path d="M154.633 27.1367H151.34V30.4292H154.633V27.1367Z" fill="#EB5D2D"/>
<path d="M161.217 27.1367H157.924V30.4292H161.217V27.1367Z" fill="#EB5D2D"/>
<path d="M177.679 27.1367H174.387V30.4292H177.679V27.1367Z" fill="#EB5D2D"/>
<path d="M154.632 30.4375H134.877V33.73H154.632V30.4375Z" fill="#EB5D2D"/>
<path d="M177.679 30.4375H157.924V33.73H177.679V30.4375Z" fill="#EB5D2D"/>
<path d="M138.169 20.5508H125V23.8432H138.169V20.5508Z" fill="#EB5D2D"/>
<path d="M161.218 20.5508H151.34V23.8432H161.218V20.5508Z" fill="#EB5D2D"/>
</g>
<defs>
<clipPath id="clip0_301_2930">
<rect width="52.6794" height="19.7548" fill="white" transform="translate(125 13.9727)"/>
</clipPath>
</defs>
</svg>
