<svg width="159" height="57" viewBox="0 0 159 57" fill="none" xmlns="http://www.w3.org/2000/svg">
<path d="M9.09559 54.2012C7.76506 54.2012 6.38 53.9504 4.94041 53.4487C3.50082 52.947 2.20301 52.1836 1.04697 51.1584L4.25333 47.2977C5.01675 47.9085 5.8347 48.4101 6.70718 48.8027C7.60147 49.1736 8.44123 49.359 9.22646 49.359C10.0771 49.359 10.6879 49.2281 11.0587 48.9663C11.4513 48.7046 11.6476 48.3338 11.6476 47.8539C11.6476 47.3523 11.3858 46.9705 10.8624 46.7088C10.3607 46.4471 9.6627 46.1417 8.76841 45.7927L6.11826 44.6803C4.98403 44.2222 3.98068 43.5024 3.10821 42.5209C2.25754 41.5394 1.83221 40.2852 1.83221 38.7583C1.83221 37.5369 2.17029 36.4354 2.84646 35.4538C3.52263 34.4505 4.44964 33.6543 5.62749 33.0654C6.82715 32.4547 8.2013 32.1493 9.74995 32.1493C10.9714 32.1493 12.2038 32.3892 13.4471 32.8691C14.7122 33.3272 15.8355 34.036 16.817 34.9958L14.0033 38.5293C13.2835 38.0276 12.5855 37.6459 11.9093 37.3842C11.255 37.1224 10.5352 36.9916 9.74995 36.9916C9.07378 36.9916 8.52848 37.1115 8.11405 37.3515C7.72144 37.5914 7.52513 37.9513 7.52513 38.4312C7.52513 38.9328 7.80868 39.3254 8.3758 39.609C8.94291 39.8707 9.70633 40.187 10.6661 40.5578L13.2508 41.5721C14.5813 42.0956 15.6065 42.8263 16.3263 43.7642C17.0461 44.7021 17.4059 45.9127 17.4059 47.3959C17.4059 48.5955 17.0788 49.7189 16.4244 50.7658C15.7919 51.791 14.8539 52.6198 13.6107 53.2524C12.3674 53.8849 10.8624 54.2012 9.09559 54.2012ZM24.2081 53.8086V32.5419H37.9496V37.2533H29.8355V40.5905H36.7717V45.3019H29.8355V49.0972H38.2768V53.8086H24.2081ZM45.7729 53.8086V32.5419H59.5144V37.2533H51.4003V40.5905H58.3366V45.3019H51.4003V49.0972H59.8416V53.8086H45.7729ZM67.3377 53.8086V32.5419H72.9652V40.4597H73.096L78.4618 32.5419H84.6127L78.2655 41.1795L85.856 53.8086H79.705L74.9937 45.6291L72.9652 48.5083V53.8086H67.3377Z" fill="#3E4B5F"/>
<path d="M2.71559 27.8594V6.46183H6.60903L13.2835 18.502L15.4756 23.0498H15.6065C15.5192 21.9592 15.4102 20.7705 15.2793 19.4836C15.1702 18.1967 15.1157 16.9534 15.1157 15.7537V6.46183H18.7474V27.8594H14.8539L8.17949 15.8192L5.98739 11.2714H5.85651C5.94376 12.4056 6.04191 13.5943 6.15097 14.8376C6.28185 16.0809 6.34728 17.3024 6.34728 18.502V27.8594H2.71559ZM32.8356 28.252C30.9815 28.252 29.3456 27.8048 27.9279 26.9106C26.5101 25.9945 25.3977 24.7075 24.5906 23.0498C23.8054 21.3703 23.4128 19.3745 23.4128 17.0625C23.4128 14.7504 23.8054 12.7764 24.5906 11.1405C25.3977 9.5046 26.5101 8.25042 27.9279 7.37794C29.3456 6.50546 30.9815 6.06922 32.8356 6.06922C34.7114 6.06922 36.3582 6.50546 37.776 7.37794C39.1938 8.25042 40.2953 9.5046 41.0805 11.1405C41.8875 12.7764 42.2911 14.7504 42.2911 17.0625C42.2911 19.3745 41.8875 21.3703 41.0805 23.0498C40.2953 24.7075 39.1938 25.9945 37.776 26.9106C36.3582 27.8048 34.7114 28.252 32.8356 28.252ZM32.8356 24.9475C34.5151 24.9475 35.8565 24.2386 36.8599 22.8208C37.8632 21.3812 38.3649 19.4618 38.3649 17.0625C38.3649 14.6631 37.8632 12.7873 36.8599 11.435C35.8565 10.0608 34.5151 9.37373 32.8356 9.37373C31.156 9.37373 29.8146 10.0608 28.8113 11.435C27.8079 12.7873 27.3062 14.6631 27.3062 17.0625C27.3062 19.4618 27.8079 21.3812 28.8113 22.8208C29.8146 24.2386 31.156 24.9475 32.8356 24.9475ZM54.9258 28.252C53.2899 28.252 51.8613 27.9248 50.6398 27.2705C49.4183 26.6161 48.4695 25.5691 47.7933 24.1295C47.139 22.6899 46.8118 20.8032 46.8118 18.4693V6.46183H50.6071V18.7638C50.6071 20.3124 50.7816 21.5448 51.1306 22.4609C51.5014 23.3552 52.0139 23.9987 52.6683 24.3913C53.3227 24.7621 54.0752 24.9475 54.9258 24.9475C55.7983 24.9475 56.5617 24.7621 57.2161 24.3913C57.8923 23.9987 58.4158 23.3552 58.7866 22.4609C59.1792 21.5448 59.3755 20.3124 59.3755 18.7638V6.46183H63.0072V18.4693C63.0072 20.8032 62.68 22.6899 62.0256 24.1295C61.3713 25.5691 60.4334 26.6161 59.2119 27.2705C58.0122 27.9248 56.5835 28.252 54.9258 28.252ZM68.6876 27.8594V6.46183H72.581L79.2555 18.502L81.4476 23.0498H81.5785C81.4912 21.9592 81.3822 20.7705 81.2513 19.4836C81.1422 18.1967 81.0877 16.9534 81.0877 15.7537V6.46183H84.7194V27.8594H80.826L74.1515 15.8192L71.9594 11.2714H71.8285C71.9158 12.4056 72.0139 13.5943 72.123 14.8376C72.2539 16.0809 72.3193 17.3024 72.3193 18.502V27.8594H68.6876Z" fill="#3E4B5F"/>
<g clip-path="url(#clip0_193_3231)">
<path d="M120 20.8281H112.333V24.6615H120V20.8281Z" fill="white"/>
<path d="M127.667 20.8281H120V24.6615H127.667V20.8281Z" fill="black"/>
<path d="M146.833 20.8281H139.167V24.6615H146.833V20.8281Z" fill="white"/>
<path d="M154.5 20.8281H146.833V24.6615H154.5V20.8281Z" fill="black"/>
<path d="M120 24.6621H112.333V28.4954H120V24.6621Z" fill="white"/>
<path d="M127.667 24.6621H120V28.4954H127.667V24.6621Z" fill="black"/>
<path d="M146.833 24.6621H139.167V28.4954H146.833V24.6621Z" fill="white"/>
<path d="M154.5 24.6621H146.833V28.4954H154.5V24.6621Z" fill="black"/>
<path d="M120 28.4941H112.333V32.3275H120V28.4941Z" fill="white"/>
<path d="M127.667 28.4941H120V32.3275H127.667V28.4941Z" fill="black"/>
<path d="M146.833 28.4941H139.167V32.3275H146.833V28.4941Z" fill="white"/>
<path d="M154.5 28.4941H146.833V32.3275H154.5V28.4941Z" fill="black"/>
<path d="M120 32.3281H112.333V36.1615H120V32.3281Z" fill="white"/>
<path d="M127.667 32.3281H120V36.1615H127.667V32.3281Z" fill="black"/>
<path d="M146.833 32.3281H139.167V36.1615H146.833V32.3281Z" fill="white"/>
<path d="M154.5 32.3281H146.833V36.1615H154.5V32.3281Z" fill="black"/>
<path d="M131.5 16.9961H108.5V20.8294H131.5V16.9961Z" fill="#EB5D2D"/>
<path d="M158.333 16.9961H135.333V20.8294H158.333V16.9961Z" fill="#EB5D2D"/>
<path d="M112.333 20.8301H108.5V24.6634H112.333V20.8301Z" fill="#EB5D2D"/>
<path d="M131.5 20.8301H127.667V24.6634H131.5V20.8301Z" fill="#EB5D2D"/>
<path d="M139.167 20.8301H135.333V24.6634H139.167V20.8301Z" fill="#EB5D2D"/>
<path d="M158.333 20.8301H154.5V24.6634H158.333V20.8301Z" fill="#EB5D2D"/>
<path d="M158.333 24.6621H154.5V28.4954H158.333V24.6621Z" fill="#EB5D2D"/>
<path d="M112.333 28.4961H108.5V32.3294H112.333V28.4961Z" fill="#EB5D2D"/>
<path d="M131.5 28.4961H127.667V32.3294H131.5V28.4961Z" fill="#EB5D2D"/>
<path d="M139.167 28.4961H135.333V32.3294H139.167V28.4961Z" fill="#EB5D2D"/>
<path d="M158.333 28.4961H154.5V32.3294H158.333V28.4961Z" fill="#EB5D2D"/>
<path d="M100.833 28.4961H97V32.3294H100.833V28.4961Z" fill="#EB5D2D"/>
<path d="M100.833 32.3301H97V36.1634H100.833V32.3301Z" fill="#EB5D2D"/>
<path d="M112.333 32.3301H108.5V36.1634H112.333V32.3301Z" fill="#EB5D2D"/>
<path d="M131.5 32.3301H127.667V36.1634H131.5V32.3301Z" fill="#EB5D2D"/>
<path d="M139.167 32.3301H135.333V36.1634H139.167V32.3301Z" fill="#EB5D2D"/>
<path d="M158.333 32.3301H154.5V36.1634H158.333V32.3301Z" fill="#EB5D2D"/>
<path d="M131.5 36.1621H108.5V39.9954H131.5V36.1621Z" fill="#EB5D2D"/>
<path d="M158.333 36.1621H135.333V39.9954H158.333V36.1621Z" fill="#EB5D2D"/>
<path d="M112.333 24.6641H97V28.4974H112.333V24.6641Z" fill="#EB5D2D"/>
<path d="M139.167 24.6641H127.667V28.4974H139.167V24.6641Z" fill="#EB5D2D"/>
</g>
<defs>
<clipPath id="clip0_193_3231">
<rect width="61.3333" height="23" fill="white" transform="translate(97 16.9961)"/>
</clipPath>
</defs>
</svg>
