<svg width="500" height="500" viewBox="0 0 500 500" fill="none" xmlns="http://www.w3.org/2000/svg">
<rect width="500" height="500" fill="#F2F5F9"/>
<g opacity="0.4">
<g clip-path="url(#clip0_278_3270)">
<path d="M211.134 210.986H172.423V230.342H211.134V210.986Z" fill="white"/>
<path d="M249.851 210.986H211.141V230.342H249.851V210.986Z" fill="black"/>
<path d="M346.615 210.986H307.905V230.342H346.615V210.986Z" fill="white"/>
<path d="M385.332 210.986H346.622V230.342H385.332V210.986Z" fill="black"/>
<path d="M211.134 230.314H172.423V249.67H211.134V230.314Z" fill="white"/>
<path d="M249.851 230.314H211.141V249.67H249.851V230.314Z" fill="black"/>
<path d="M346.615 230.314H307.905V249.67H346.615V230.314Z" fill="white"/>
<path d="M385.332 230.314H346.622V249.67H385.332V230.314Z" fill="black"/>
<path d="M211.134 249.725H172.423V269.08H211.134V249.725Z" fill="white"/>
<path d="M249.851 249.725H211.141V269.08H249.851V249.725Z" fill="black"/>
<path d="M346.615 249.725H307.905V269.08H346.615V249.725Z" fill="white"/>
<path d="M385.332 249.725H346.622V269.08H385.332V249.725Z" fill="black"/>
<path d="M211.134 269.053H172.423V288.408H211.134V269.053Z" fill="white"/>
<path d="M249.851 269.053H211.141V288.408H249.851V269.053Z" fill="black"/>
<path d="M346.615 269.053H307.905V288.408H346.615V269.053Z" fill="white"/>
<path d="M385.332 269.053H346.622V288.408H385.332V269.053Z" fill="black"/>
<path d="M269.194 191.576H153.062V210.931H269.194V191.576Z" fill="black"/>
<path d="M404.683 191.576H288.552V210.931H404.683V191.576Z" fill="black"/>
<path d="M172.418 210.902H153.062V230.258H172.418V210.902Z" fill="black"/>
<path d="M269.201 210.902H249.846V230.258H269.201V210.902Z" fill="black"/>
<path d="M307.907 210.902H288.552V230.258H307.907V210.902Z" fill="black"/>
<path d="M404.683 210.902H385.328V230.258H404.683V210.902Z" fill="black"/>
<path d="M404.683 230.307H385.328V249.662H404.683V230.307Z" fill="black"/>
<path d="M172.418 249.643H153.062V268.998H172.418V249.643Z" fill="black"/>
<path d="M269.201 249.643H249.846V268.998H269.201V249.643Z" fill="black"/>
<path d="M307.907 249.643H288.552V268.998H307.907V249.643Z" fill="black"/>
<path d="M404.683 249.643H385.328V268.998H404.683V249.643Z" fill="black"/>
<path d="M114.352 249.635H94.9971V268.99H114.352V249.635Z" fill="black"/>
<path d="M114.352 268.963H94.9971V288.318H114.352V268.963Z" fill="black"/>
<path d="M172.418 268.969H153.062V288.324H172.418V268.969Z" fill="black"/>
<path d="M269.201 268.969H249.846V288.324H269.201V268.969Z" fill="black"/>
<path d="M307.907 268.969H288.552V288.324H307.907V268.969Z" fill="black"/>
<path d="M404.683 268.969H385.328V288.324H404.683V268.969Z" fill="black"/>
<path d="M269.194 288.379H153.062V307.734H269.194V288.379Z" fill="black"/>
<path d="M404.683 288.379H288.552V307.734H404.683V288.379Z" fill="black"/>
<path d="M172.418 230.26H94.9971V249.615H172.418V230.26Z" fill="black"/>
<path d="M307.911 230.26H249.846V249.615H307.911V230.26Z" fill="black"/>
</g>
</g>
<defs>
<clipPath id="clip0_278_3270">
<rect width="309.683" height="116.131" fill="white" transform="translate(95 191.594)"/>
</clipPath>
</defs>
</svg>
